<svg width="1074" height="472" viewBox="0 0 1074 472" fill="none" xmlns="http://www.w3.org/2000/svg">
<path d="M684.561 456.07L688.281 455.14V415.46L684.561 414.53V413.6H700.991C708.018 413.6 713.081 414.675 716.181 416.824C719.281 418.932 720.831 421.887 720.831 425.69C720.831 428.253 720.149 430.34 718.785 431.952C717.421 433.523 715.664 434.701 713.515 435.486C711.242 436.354 708.824 436.809 706.261 436.85V437.16C707.79 437.243 709.134 437.47 710.291 437.842C713.184 438.751 715.148 440.384 716.181 442.74L721.761 455.14L724.861 456.07V457H716.181C712.792 457 710.312 455.243 708.741 451.73L702.541 437.78H698.511V455.14L702.851 456.07V457H684.561V456.07ZM700.991 436.23C703.884 436.23 706.158 435.321 707.811 433.502C709.464 431.683 710.291 429.079 710.291 425.69C710.291 422.301 709.464 419.697 707.811 417.878C706.158 416.059 703.884 415.15 700.991 415.15H698.511V436.23H700.991ZM727.973 456.07L731.693 455.14V415.46L727.973 414.53V413.6H761.143V424.76H759.283C758.498 424.14 757.816 423.355 757.237 422.404C755.914 420.172 755.253 417.754 755.253 415.15H741.923V434.68H749.053C749.342 433.109 749.88 431.642 750.665 430.278C750.996 429.658 751.388 429.059 751.843 428.48H753.703V442.43H751.843C751.388 441.851 750.996 441.252 750.665 440.632C749.88 439.268 749.342 437.801 749.053 436.23H741.923V455.45H756.493C756.493 452.846 757.154 450.428 758.477 448.196C759.056 447.245 759.738 446.46 760.523 445.84H762.383V457H727.973V456.07ZM784.379 457.93C781.237 457.93 778.344 457.041 775.699 455.264C773.053 453.487 770.945 450.903 769.375 447.514C767.804 444.083 767.019 440.012 767.019 435.3C767.019 430.547 767.825 426.475 769.437 423.086C771.09 419.655 773.384 417.072 776.319 415.336C779.295 413.559 782.725 412.67 786.611 412.67C788.967 412.67 791.343 413.352 793.741 414.716C794.65 415.212 795.559 415.873 796.469 416.7C797.171 415.625 797.895 414.778 798.639 414.158C799.383 413.621 799.796 413.331 799.879 413.29H801.429V425.07H798.949C798.411 423.086 797.605 421.288 796.531 419.676C795.539 418.105 794.299 416.803 792.811 415.77C791.364 414.737 789.69 414.22 787.789 414.22C784.937 414.22 782.56 415.873 780.659 419.18C778.799 422.487 777.869 427.86 777.869 435.3C777.869 442.74 778.695 448.01 780.349 451.11C782.043 454.21 784.213 455.76 786.859 455.76C788.388 455.76 789.773 454.933 791.013 453.28C791.467 452.66 791.943 451.833 792.439 450.8V436.54L788.719 435.61V434.68H806.389V435.61L802.669 436.54V457.31H801.739C798.721 457.31 796.427 456.483 794.857 454.83C794.154 454.086 793.658 453.259 793.369 452.35C792.79 453.383 792.108 454.313 791.323 455.14C789.463 457 787.148 457.93 784.379 457.93ZM832.131 457.93C826.013 457.93 821.384 456.504 818.243 453.652C815.101 450.759 813.531 446.708 813.531 441.5V415.46L809.811 414.53V413.6H827.481V414.53L823.761 415.46V441.5C823.761 446.832 824.587 450.655 826.241 452.97C827.894 455.243 830.271 456.38 833.371 456.38C835.272 456.38 837.07 455.781 838.765 454.582C840.501 453.342 841.885 451.606 842.919 449.374C843.993 447.101 844.531 444.476 844.531 441.5V416.39L839.571 414.53V413.6H851.351V414.53L846.391 416.39V441.5C846.391 444.848 845.771 447.762 844.531 450.242C843.291 452.722 841.596 454.623 839.447 455.946C837.297 457.269 834.859 457.93 832.131 457.93ZM854.758 456.07L858.478 455.14V415.46L854.758 414.53V413.6H872.428V414.53L868.708 415.46V455.45H882.038C882.038 452.846 882.7 450.428 884.022 448.196C884.601 447.245 885.283 446.46 886.068 445.84H887.928V457H854.758V456.07ZM888.26 456.07L893.22 454.21L910.27 412.98H912.13L929.8 455.14L932.9 456.07V457H925.46C923.311 457 921.554 456.525 920.19 455.574C918.826 454.582 917.813 453.301 917.152 451.73L913.99 444.29H899.172L895.08 454.21L899.73 456.07V457H888.26V456.07ZM899.792 442.74H913.37L906.55 426.434L899.792 442.74ZM934.741 456.07L938.461 455.14V415.46L934.741 414.53V413.6H951.171C958.197 413.6 963.261 414.675 966.361 416.824C969.461 418.932 971.011 421.887 971.011 425.69C971.011 428.253 970.329 430.34 968.965 431.952C967.601 433.523 965.844 434.701 963.695 435.486C961.421 436.354 959.003 436.809 956.441 436.85V437.16C957.97 437.243 959.313 437.47 960.471 437.842C963.364 438.751 965.327 440.384 966.361 442.74L971.941 455.14L975.041 456.07V457H966.361C962.971 457 960.491 455.243 958.921 451.73L952.721 437.78H948.691V455.14L953.031 456.07V457H934.741V456.07ZM951.171 436.23C954.064 436.23 956.337 435.321 957.991 433.502C959.644 431.683 960.471 429.079 960.471 425.69C960.471 422.301 959.644 419.697 957.991 417.878C956.337 416.059 954.064 415.15 951.171 415.15H948.691V436.23H951.171ZM1012.27 457.93C1007.06 457.93 1002.97 456.07 999.994 452.35C997.018 448.63 995.53 442.947 995.53 435.3C995.53 427.86 997.142 422.239 1000.37 418.436C1003.63 414.592 1008.12 412.67 1013.82 412.67C1016.26 412.67 1018.39 413.083 1020.21 413.91C1022.07 414.695 1023.47 415.708 1024.42 416.948C1025.41 418.188 1025.91 419.449 1025.91 420.73C1025.91 422.135 1025.48 423.272 1024.61 424.14C1023.78 424.967 1022.67 425.38 1021.26 425.38C1020.68 425.38 1020.1 425.339 1019.52 425.256L1018.78 425.07V415.15L1017.6 414.716C1016.69 414.385 1015.85 414.22 1015.06 414.22C1013.03 414.22 1011.36 414.757 1010.04 415.832C1008.76 416.907 1007.76 418.891 1007.06 421.784C1006.4 424.677 1006.07 428.769 1006.07 434.06C1006.52 433.357 1007.08 432.737 1007.74 432.2C1009.31 430.96 1011.13 430.34 1013.2 430.34C1016.22 430.34 1018.84 430.919 1021.07 432.076C1023.35 433.192 1025.08 434.763 1026.28 436.788C1027.48 438.813 1028.08 441.107 1028.08 443.67C1028.08 448.093 1026.7 451.585 1023.93 454.148C1021.2 456.669 1017.31 457.93 1012.27 457.93ZM1012.27 456.69C1013.1 456.69 1013.9 456.277 1014.69 455.45C1015.51 454.623 1016.2 453.28 1016.73 451.42C1017.27 449.56 1017.54 447.183 1017.54 444.29C1017.54 441.397 1017.25 439.02 1016.67 437.16C1016.13 435.3 1015.43 433.957 1014.56 433.13C1013.74 432.303 1012.87 431.89 1011.96 431.89C1010.27 431.89 1008.9 432.717 1007.87 434.37C1006.88 436.023 1006.38 438.607 1006.38 442.12C1006.38 447.369 1006.94 451.11 1008.05 453.342C1009.21 455.574 1010.62 456.69 1012.27 456.69ZM1032.74 454.21C1032.74 451.771 1033.21 449.56 1034.16 447.576C1035.15 445.551 1036.35 443.794 1037.76 442.306C1039.16 440.818 1041 439.061 1043.28 437.036C1045.38 435.176 1047.04 433.626 1048.24 432.386C1049.44 431.105 1050.45 429.679 1051.27 428.108C1052.1 426.496 1052.51 424.76 1052.51 422.9C1052.51 420.172 1051.85 418.043 1050.53 416.514C1049.21 414.985 1047.49 414.22 1045.38 414.22C1044.19 414.22 1042.97 414.385 1041.73 414.716L1040.42 415.15V425.07L1039.62 425.256C1038.96 425.339 1038.4 425.38 1037.94 425.38C1036.54 425.38 1035.4 424.967 1034.53 424.14C1033.71 423.272 1033.29 422.135 1033.29 420.73C1033.29 419.407 1033.79 418.126 1034.78 416.886C1035.82 415.646 1037.32 414.633 1039.31 413.848C1041.33 413.063 1043.77 412.67 1046.62 412.67C1052.2 412.67 1056.34 413.786 1059.02 416.018C1061.71 418.25 1063.05 421.371 1063.05 425.38C1063.05 427.901 1062.39 430.071 1061.07 431.89C1059.79 433.709 1058.2 435.217 1056.3 436.416C1054.44 437.615 1051.94 438.979 1048.79 440.508C1046.15 441.789 1044 442.926 1042.35 443.918C1040.73 444.869 1039.23 446.026 1037.82 447.39C1036.46 448.754 1035.49 450.304 1034.91 452.04H1057.85C1058.14 449.808 1058.84 447.948 1059.95 446.46C1060.41 445.757 1060.95 445.137 1061.57 444.6H1063.43V457H1032.74V454.21Z" fill="black"/>
<path d="M459.304 375.53L465.184 374.06V311.34L459.304 309.87V308.4H485.274C496.381 308.4 504.384 310.099 509.284 313.496C514.184 316.828 516.634 321.499 516.634 327.51C516.634 331.561 515.556 334.86 513.4 337.408C511.244 339.891 508.468 341.753 505.07 342.994C501.477 344.366 497.655 345.085 493.604 345.15V345.64C496.022 345.771 498.145 346.13 499.974 346.718C504.548 348.155 507.651 350.736 509.284 354.46L518.104 374.06L523.004 375.53V377H509.284C503.927 377 500.007 374.223 497.524 368.67L487.724 346.62H481.354V374.06L488.214 375.53V377H459.304V375.53ZM485.274 344.17C489.848 344.17 493.441 342.733 496.054 339.858C498.668 336.983 499.974 332.867 499.974 327.51C499.974 322.153 498.668 318.037 496.054 315.162C493.441 312.287 489.848 310.85 485.274 310.85H481.354V344.17H485.274ZM527.923 375.53L533.803 374.06V311.34L527.923 309.87V308.4H580.353V326.04H577.413C576.172 325.06 575.094 323.819 574.179 322.316C572.089 318.788 571.043 314.966 571.043 310.85H549.973V341.72H561.243C561.701 339.237 562.55 336.918 563.791 334.762C564.314 333.782 564.935 332.835 565.653 331.92H568.593V353.97H565.653C564.935 353.055 564.314 352.108 563.791 351.128C562.55 348.972 561.701 346.653 561.243 344.17H549.973V374.55H573.003C573.003 370.434 574.049 366.612 576.139 363.084C577.054 361.581 578.132 360.34 579.373 359.36H582.313V377H527.923V375.53ZM617.08 378.47C612.115 378.47 607.542 377.065 603.36 374.256C599.179 371.447 595.847 367.363 593.364 362.006C590.882 356.583 589.64 350.148 589.64 342.7C589.64 335.187 590.914 328.751 593.462 323.394C596.076 317.971 599.702 313.888 604.34 311.144C609.044 308.335 614.467 306.93 620.608 306.93C624.332 306.93 628.089 308.008 631.878 310.164C633.316 310.948 634.753 311.993 636.19 313.3C637.301 311.601 638.444 310.262 639.62 309.282C640.796 308.433 641.45 307.975 641.58 307.91H644.03V326.53H640.11C639.261 323.394 637.987 320.552 636.288 318.004C634.72 315.521 632.76 313.463 630.408 311.83C628.122 310.197 625.476 309.38 622.47 309.38C617.962 309.38 614.206 311.993 611.2 317.22C608.26 322.447 606.79 330.94 606.79 342.7C606.79 354.46 608.097 362.79 610.71 367.69C613.389 372.59 616.819 375.04 621 375.04C623.418 375.04 625.606 373.733 627.566 371.12C628.285 370.14 629.036 368.833 629.82 367.2V344.66L623.94 343.19V341.72H651.87V343.19L645.99 344.66V377.49H644.52C639.751 377.49 636.125 376.183 633.642 373.57C632.532 372.394 631.748 371.087 631.29 369.65C630.376 371.283 629.298 372.753 628.056 374.06C625.116 377 621.458 378.47 617.08 378.47ZM692.56 378.47C682.89 378.47 675.573 376.216 670.608 371.708C665.642 367.135 663.16 360.732 663.16 352.5V311.34L657.28 309.87V308.4H685.21V309.87L679.33 311.34V352.5C679.33 360.928 680.636 366.971 683.25 370.63C685.863 374.223 689.62 376.02 694.52 376.02C697.525 376.02 700.367 375.073 703.046 373.178C705.79 371.218 707.978 368.474 709.612 364.946C711.31 361.353 712.16 357.204 712.16 352.5V312.81L704.32 309.87V308.4H722.94V309.87L715.1 312.81V352.5C715.1 357.792 714.12 362.398 712.16 366.318C710.2 370.238 707.521 373.243 704.124 375.334C700.726 377.425 696.872 378.47 692.56 378.47ZM728.326 375.53L734.206 374.06V311.34L728.326 309.87V308.4H756.256V309.87L750.376 311.34V374.55H771.446C771.446 370.434 772.491 366.612 774.582 363.084C775.496 361.581 776.574 360.34 777.816 359.36H780.756V377H728.326V375.53ZM781.28 375.53L789.12 372.59L816.07 307.42H819.01L846.94 374.06L851.84 375.53V377H840.08C836.683 377 833.906 376.249 831.75 374.746C829.594 373.178 827.994 371.153 826.948 368.67L821.95 356.91H798.528L792.06 372.59L799.41 375.53V377H781.28V375.53ZM799.508 354.46H820.97L810.19 328.686L799.508 354.46ZM854.75 375.53L860.63 374.06V311.34L854.75 309.87V308.4H880.72C891.826 308.4 899.83 310.099 904.73 313.496C909.63 316.828 912.08 321.499 912.08 327.51C912.08 331.561 911.002 334.86 908.846 337.408C906.69 339.891 903.913 341.753 900.516 342.994C896.922 344.366 893.1 345.085 889.05 345.15V345.64C891.467 345.771 893.59 346.13 895.42 346.718C899.993 348.155 903.096 350.736 904.73 354.46L913.55 374.06L918.45 375.53V377H904.73C899.372 377 895.452 374.223 892.97 368.67L883.17 346.62H876.8V374.06L883.66 375.53V377H854.75V375.53ZM880.72 344.17C885.293 344.17 888.886 342.733 891.5 339.858C894.113 336.983 895.42 332.867 895.42 327.51C895.42 322.153 894.113 318.037 891.5 315.162C888.886 312.287 885.293 310.85 880.72 310.85H876.8V344.17H880.72ZM972.886 378.47C969.031 378.47 965.634 377.849 962.694 376.608C959.819 375.301 957.598 373.668 956.03 371.708C954.527 369.748 953.776 367.755 953.776 365.73C953.776 363.509 954.429 361.745 955.736 360.438C957.108 359.066 958.904 358.38 961.126 358.38C961.648 358.38 962.171 358.445 962.694 358.576C963.216 358.641 963.576 358.674 963.772 358.674L965.046 358.87V374.55L966.908 375.334C968.084 375.791 969.423 376.02 970.926 376.02C974.127 376.02 976.74 375.171 978.766 373.472C980.791 371.773 982.359 368.637 983.47 364.064C984.58 359.491 985.136 353.023 985.136 344.66C984.548 345.64 983.633 346.62 982.392 347.6C979.909 349.56 977.067 350.54 973.866 350.54C969.096 350.54 964.915 349.658 961.322 347.894C957.794 346.065 955.082 343.549 953.188 340.348C951.293 337.147 950.346 333.521 950.346 329.47C950.346 322.479 952.502 316.991 956.814 313.006C961.191 308.955 967.365 306.93 975.336 306.93C983.568 306.93 990.036 309.87 994.74 315.75C999.444 321.63 1001.8 330.613 1001.8 342.7C1001.8 354.46 999.215 363.378 994.054 369.454C988.958 375.465 981.902 378.47 972.886 378.47ZM975.826 348.09C978.504 348.09 980.628 346.783 982.196 344.17C983.829 341.557 984.646 337.473 984.646 331.92C984.646 323.623 983.731 317.71 981.902 314.182C980.138 310.654 977.949 308.89 975.336 308.89C974.029 308.89 972.722 309.543 971.416 310.85C970.174 312.157 969.129 314.28 968.28 317.22C967.43 320.16 967.006 323.917 967.006 328.49C967.006 333.063 967.43 336.82 968.28 339.76C969.194 342.7 970.305 344.823 971.612 346.13C972.984 347.437 974.388 348.09 975.826 348.09ZM1035.62 378.47C1027.39 378.47 1021.15 376.837 1016.9 373.57C1012.72 370.303 1010.63 366.057 1010.63 360.83C1010.63 357.237 1012.2 353.774 1015.33 350.442C1018.47 347.045 1022.29 344.627 1026.8 343.19C1022.49 340.773 1019.19 338.127 1016.9 335.252C1014.68 332.312 1013.57 328.751 1013.57 324.57C1013.57 319.343 1015.66 315.097 1019.84 311.83C1024.09 308.563 1030.33 306.93 1038.56 306.93C1042.67 306.93 1046.27 307.681 1049.34 309.184C1052.47 310.687 1054.89 312.647 1056.59 315.064C1058.29 317.481 1059.14 319.997 1059.14 322.61C1059.14 325.681 1057.8 328.653 1055.12 331.528C1052.51 334.403 1049.44 336.33 1045.91 337.31C1051.85 339.923 1056.36 343.027 1059.43 346.62C1062.5 350.213 1064.04 354.623 1064.04 359.85C1064.04 363.247 1062.99 366.351 1060.9 369.16C1058.81 371.969 1055.64 374.223 1051.4 375.922C1047.15 377.621 1041.89 378.47 1035.62 378.47ZM1042.97 335.35C1045.45 334.239 1047.44 332.639 1048.95 330.548C1050.51 328.457 1051.3 325.811 1051.3 322.61C1051.3 320.258 1050.71 318.069 1049.53 316.044C1048.42 314.019 1046.95 312.418 1045.12 311.242C1043.36 310.001 1041.5 309.38 1039.54 309.38C1036.73 309.38 1034.38 310.491 1032.48 312.712C1030.65 314.868 1029.74 317.841 1029.74 321.63C1029.74 326.857 1034.15 331.43 1042.97 335.35ZM1034.64 376.02C1038.82 376.02 1042.05 374.877 1044.34 372.59C1046.69 370.238 1047.87 366.971 1047.87 362.79C1047.87 359.654 1046.3 356.485 1043.16 353.284C1040.03 350.083 1035.88 347.371 1030.72 345.15C1027.06 346.457 1024.18 348.417 1022.09 351.03C1020 353.578 1018.96 356.845 1018.96 360.83C1018.96 363.574 1019.64 366.122 1021.02 368.474C1022.45 370.761 1024.35 372.59 1026.7 373.962C1029.12 375.334 1031.76 376.02 1034.64 376.02Z" fill="black"/>
<path d="M278.906 266.2L286.106 264.4V187.6L278.906 185.8V184H310.706C324.306 184 334.106 186.08 340.106 190.24C346.106 194.32 349.106 200.04 349.106 207.4C349.106 212.36 347.786 216.4 345.146 219.52C342.506 222.56 339.106 224.84 334.946 226.36C330.546 228.04 325.866 228.92 320.906 229V229.6C323.866 229.76 326.466 230.2 328.706 230.92C334.306 232.68 338.106 235.84 340.106 240.4L350.906 264.4L356.906 266.2V268H340.106C333.546 268 328.746 264.6 325.706 257.8L313.706 230.8H305.906V264.4L314.306 266.2V268H278.906V266.2ZM310.706 227.8C316.306 227.8 320.706 226.04 323.906 222.52C327.106 219 328.706 213.96 328.706 207.4C328.706 200.84 327.106 195.8 323.906 192.28C320.706 188.76 316.306 187 310.706 187H305.906V227.8H310.706ZM362.93 266.2L370.13 264.4V187.6L362.93 185.8V184H427.13V205.6H423.53C422.01 204.4 420.69 202.88 419.57 201.04C417.01 196.72 415.73 192.04 415.73 187H389.93V224.8H403.73C404.29 221.76 405.33 218.92 406.85 216.28C407.49 215.08 408.25 213.92 409.13 212.8H412.73V239.8H409.13C408.25 238.68 407.49 237.52 406.85 236.32C405.33 233.68 404.29 230.84 403.73 227.8H389.93V265H418.13C418.13 259.96 419.41 255.28 421.97 250.96C423.09 249.12 424.41 247.6 425.93 246.4H429.53V268H362.93V266.2ZM472.102 269.8C466.022 269.8 460.422 268.08 455.302 264.64C450.182 261.2 446.102 256.2 443.062 249.64C440.022 243 438.502 235.12 438.502 226C438.502 216.8 440.062 208.92 443.182 202.36C446.382 195.72 450.822 190.72 456.502 187.36C462.262 183.92 468.902 182.2 476.422 182.2C480.982 182.2 485.582 183.52 490.222 186.16C491.982 187.12 493.742 188.4 495.502 190C496.862 187.92 498.262 186.28 499.702 185.08C501.142 184.04 501.942 183.48 502.102 183.4H505.102V206.2H500.302C499.262 202.36 497.702 198.88 495.622 195.76C493.702 192.72 491.302 190.2 488.422 188.2C485.622 186.2 482.382 185.2 478.702 185.2C473.182 185.2 468.582 188.4 464.902 194.8C461.302 201.2 459.502 211.6 459.502 226C459.502 240.4 461.102 250.6 464.302 256.6C467.582 262.6 471.782 265.6 476.902 265.6C479.862 265.6 482.542 264 484.942 260.8C485.822 259.6 486.742 258 487.702 256V228.4L480.502 226.6V224.8H514.702V226.6L507.502 228.4V268.6H505.702C499.862 268.6 495.422 267 492.382 263.8C491.022 262.36 490.062 260.76 489.502 259C488.382 261 487.062 262.8 485.542 264.4C481.942 268 477.462 269.8 472.102 269.8ZM564.525 269.8C552.685 269.8 543.725 267.04 537.645 261.52C531.565 255.92 528.525 248.08 528.525 238V187.6L521.325 185.8V184H555.525V185.8L548.325 187.6V238C548.325 248.32 549.925 255.72 553.125 260.2C556.325 264.6 560.925 266.8 566.925 266.8C570.605 266.8 574.085 265.64 577.365 263.32C580.725 260.92 583.405 257.56 585.405 253.24C587.485 248.84 588.525 243.76 588.525 238V189.4L578.925 185.8V184H601.725V185.8L592.125 189.4V238C592.125 244.48 590.925 250.12 588.525 254.92C586.125 259.72 582.845 263.4 578.685 265.96C574.525 268.52 569.805 269.8 564.525 269.8ZM608.32 266.2L615.52 264.4V187.6L608.32 185.8V184H642.52V185.8L635.32 187.6V265H661.12C661.12 259.96 662.4 255.28 664.96 250.96C666.08 249.12 667.4 247.6 668.92 246.4H672.52V268H608.32V266.2ZM673.162 266.2L682.763 262.6L715.763 182.8H719.363L753.563 264.4L759.563 266.2V268H745.163C741.003 268 737.603 267.08 734.963 265.24C732.323 263.32 730.363 260.84 729.083 257.8L722.963 243.4H694.283L686.363 262.6L695.363 266.2V268H673.162V266.2ZM695.483 240.4H721.763L708.563 208.84L695.483 240.4ZM763.125 266.2L770.325 264.4V187.6L763.125 185.8V184H794.925C808.525 184 818.325 186.08 824.325 190.24C830.325 194.32 833.325 200.04 833.325 207.4C833.325 212.36 832.005 216.4 829.365 219.52C826.725 222.56 823.325 224.84 819.165 226.36C814.765 228.04 810.085 228.92 805.125 229V229.6C808.085 229.76 810.685 230.2 812.925 230.92C818.525 232.68 822.325 235.84 824.325 240.4L835.125 264.4L841.125 266.2V268H824.325C817.765 268 812.965 264.6 809.925 257.8L797.925 230.8H790.125V264.4L798.525 266.2V268H763.125V266.2ZM794.925 227.8C800.525 227.8 804.925 226.04 808.125 222.52C811.325 219 812.925 213.96 812.925 207.4C812.925 200.84 811.325 195.8 808.125 192.28C804.925 188.76 800.525 187 794.925 187H790.125V227.8H794.925ZM883.181 268V266.2L891.581 263.8V197.92L878.981 206.8L876.581 203.8L898.421 184H911.381V263.8L919.781 266.2V268H883.181ZM928.186 262.6C928.186 257.88 929.106 253.6 930.946 249.76C932.866 245.84 935.186 242.44 937.906 239.56C940.626 236.68 944.186 233.28 948.586 229.36C952.666 225.76 955.866 222.76 958.186 220.36C960.506 217.88 962.466 215.12 964.066 212.08C965.666 208.96 966.466 205.6 966.466 202C966.466 196.72 965.186 192.6 962.626 189.64C960.066 186.68 956.746 185.2 952.666 185.2C950.346 185.2 947.986 185.52 945.586 186.16L943.066 187V206.2L941.506 206.56C940.226 206.72 939.146 206.8 938.266 206.8C935.546 206.8 933.346 206 931.666 204.4C930.066 202.72 929.266 200.52 929.266 197.8C929.266 195.24 930.226 192.76 932.146 190.36C934.146 187.96 937.066 186 940.906 184.48C944.826 182.96 949.546 182.2 955.066 182.2C965.866 182.2 973.866 184.36 979.066 188.68C984.266 193 986.866 199.04 986.866 206.8C986.866 211.68 985.586 215.88 983.026 219.4C980.546 222.92 977.466 225.84 973.786 228.16C970.186 230.48 965.346 233.12 959.266 236.08C954.146 238.56 949.986 240.76 946.786 242.68C943.666 244.52 940.746 246.76 938.026 249.4C935.386 252.04 933.506 255.04 932.386 258.4H976.786C977.346 254.08 978.706 250.48 980.866 247.6C981.746 246.24 982.786 245.04 983.986 244H987.586V268H928.186V262.6ZM1033.81 269.8C1027.33 269.8 1021.45 268.08 1016.17 264.64C1010.89 261.2 1006.69 256.2 1003.57 249.64C1000.53 243 999.009 235.12 999.009 226C999.009 216.88 1000.53 209.04 1003.57 202.48C1006.69 195.84 1010.89 190.8 1016.17 187.36C1021.45 183.92 1027.33 182.2 1033.81 182.2C1040.29 182.2 1046.17 183.92 1051.45 187.36C1056.73 190.8 1060.89 195.84 1063.93 202.48C1067.05 209.04 1068.61 216.88 1068.61 226C1068.61 235.12 1067.05 243 1063.93 249.64C1060.89 256.2 1056.73 261.2 1051.45 264.64C1046.17 268.08 1040.29 269.8 1033.81 269.8ZM1033.81 267.4C1043.01 267.4 1047.61 253.6 1047.61 226C1047.61 198.4 1043.01 184.6 1033.81 184.6C1024.61 184.6 1020.01 198.4 1020.01 226C1020.01 253.6 1024.61 267.4 1033.81 267.4Z" fill="black"/>
<path d="M8.8125 144.6L18.4125 142.2V39.8L8.8125 37.4V35H51.2125C69.3458 35 82.4125 37.7733 90.4125 43.32C98.4125 48.76 102.413 56.3867 102.413 66.2C102.413 72.8133 100.653 78.2 97.1325 82.36C93.6125 86.4133 89.0792 89.4533 83.5325 91.48C77.6658 93.72 71.4258 94.8933 64.8125 95V95.8C68.7592 96.0133 72.2258 96.6 75.2125 97.56C82.6792 99.9067 87.7458 104.12 90.4125 110.2L104.813 142.2L112.813 144.6V147H90.4125C81.6658 147 75.2658 142.467 71.2125 133.4L55.2125 97.4H44.8125V142.2L56.0125 144.6V147H8.8125V144.6ZM51.2125 93.4C58.6792 93.4 64.5458 91.0533 68.8125 86.36C73.0792 81.6667 75.2125 74.9467 75.2125 66.2C75.2125 57.4533 73.0792 50.7333 68.8125 46.04C64.5458 41.3467 58.6792 39 51.2125 39H44.8125V93.4H51.2125ZM120.844 144.6L130.444 142.2V39.8L120.844 37.4V35H206.444V63.8H201.644C199.617 62.2 197.857 60.1733 196.364 57.72C192.95 51.96 191.244 45.72 191.244 39H156.844V89.4H175.244C175.99 85.3467 177.377 81.56 179.404 78.04C180.257 76.44 181.27 74.8933 182.444 73.4H187.244V109.4H182.444C181.27 107.907 180.257 106.36 179.404 104.76C177.377 101.24 175.99 97.4533 175.244 93.4H156.844V143H194.444C194.444 136.28 196.15 130.04 199.564 124.28C201.057 121.827 202.817 119.8 204.844 118.2H209.644V147H120.844V144.6ZM266.406 149.4C258.3 149.4 250.833 147.107 244.006 142.52C237.18 137.933 231.74 131.267 227.686 122.52C223.633 113.667 221.606 103.16 221.606 91C221.606 78.7333 223.686 68.2267 227.846 59.48C232.113 50.6267 238.033 43.96 245.606 39.48C253.286 34.8933 262.14 32.6 272.166 32.6C278.246 32.6 284.38 34.36 290.566 37.88C292.913 39.16 295.26 40.8667 297.606 43C299.42 40.2267 301.286 38.04 303.206 36.44C305.126 35.0533 306.193 34.3067 306.406 34.2H310.406V64.6H304.006C302.62 59.48 300.54 54.84 297.766 50.68C295.206 46.6267 292.006 43.2667 288.166 40.6C284.433 37.9333 280.113 36.6 275.206 36.6C267.846 36.6 261.713 40.8667 256.806 49.4C252.006 57.9333 249.606 71.8 249.606 91C249.606 110.2 251.74 123.8 256.006 131.8C260.38 139.8 265.98 143.8 272.806 143.8C276.753 143.8 280.326 141.667 283.526 137.4C284.7 135.8 285.926 133.667 287.206 131V94.2L277.606 91.8V89.4H323.206V91.8L313.606 94.2V147.8H311.206C303.42 147.8 297.5 145.667 293.446 141.4C291.633 139.48 290.353 137.347 289.606 135C288.113 137.667 286.353 140.067 284.326 142.2C279.526 147 273.553 149.4 266.406 149.4ZM389.638 149.4C373.851 149.4 361.904 145.72 353.798 138.36C345.691 130.893 341.638 120.44 341.638 107V39.8L332.038 37.4V35H377.638V37.4L368.038 39.8V107C368.038 120.76 370.171 130.627 374.438 136.6C378.704 142.467 384.838 145.4 392.838 145.4C397.744 145.4 402.384 143.853 406.758 140.76C411.238 137.56 414.811 133.08 417.478 127.32C420.251 121.453 421.638 114.68 421.638 107V42.2L408.838 37.4V35H439.238V37.4L426.438 42.2V107C426.438 115.64 424.838 123.16 421.638 129.56C418.438 135.96 414.064 140.867 408.518 144.28C402.971 147.693 396.678 149.4 389.638 149.4ZM448.031 144.6L457.631 142.2V39.8L448.031 37.4V35H493.631V37.4L484.031 39.8V143H518.431C518.431 136.28 520.138 130.04 523.551 124.28C525.045 121.827 526.805 119.8 528.831 118.2H533.631V147H448.031V144.6ZM534.487 144.6L547.288 139.8L591.288 33.4H596.088L641.688 142.2L649.688 144.6V147H630.488C624.941 147 620.408 145.773 616.888 143.32C613.368 140.76 610.754 137.453 609.048 133.4L600.888 114.2H562.648L552.088 139.8L564.088 144.6V147H534.487V144.6ZM564.248 110.2H599.288L581.688 68.12L564.248 110.2ZM654.438 144.6L664.038 142.2V39.8L654.438 37.4V35H696.838C714.971 35 728.038 37.7733 736.038 43.32C744.038 48.76 748.038 56.3867 748.038 66.2C748.038 72.8133 746.278 78.2 742.758 82.36C739.238 86.4133 734.704 89.4533 729.158 91.48C723.291 93.72 717.051 94.8933 710.438 95V95.8C714.384 96.0133 717.851 96.6 720.838 97.56C728.304 99.9067 733.371 104.12 736.038 110.2L750.438 142.2L758.438 144.6V147H736.038C727.291 147 720.891 142.467 716.838 133.4L700.838 97.4H690.438V142.2L701.638 144.6V147H654.438V144.6ZM696.838 93.4C704.304 93.4 710.171 91.0533 714.438 86.36C718.704 81.6667 720.838 74.9467 720.838 66.2C720.838 57.4533 718.704 50.7333 714.438 46.04C710.171 41.3467 704.304 39 696.838 39H690.438V93.4H696.838ZM814.513 147V144.6L825.713 141.4V53.56L808.913 65.4L805.713 61.4L834.833 35H852.113V141.4L863.313 144.6V147H814.513ZM917.794 149.4C904.354 149.4 893.794 144.6 886.114 135C878.434 125.4 874.594 110.733 874.594 91C874.594 71.8 878.754 57.2933 887.074 47.48C895.5 37.56 907.074 32.6 921.794 32.6C928.087 32.6 933.58 33.6667 938.274 35.8C943.074 37.8267 946.7 40.44 949.154 43.64C951.714 46.84 952.994 50.0933 952.994 53.4C952.994 57.0267 951.874 59.96 949.634 62.2C947.5 64.3333 944.62 65.4 940.994 65.4C939.5 65.4 938.007 65.2933 936.514 65.08L934.594 64.6V39L931.554 37.88C929.207 37.0267 927.02 36.6 924.994 36.6C919.767 36.6 915.447 37.9867 912.034 40.76C908.727 43.5333 906.167 48.6533 904.354 56.12C902.647 63.5867 901.794 74.1467 901.794 87.8C902.967 85.9867 904.407 84.3867 906.114 83C910.167 79.8 914.86 78.2 920.194 78.2C927.98 78.2 934.754 79.6933 940.514 82.68C946.38 85.56 950.86 89.6133 953.954 94.84C957.047 100.067 958.594 105.987 958.594 112.6C958.594 124.013 955.02 133.027 947.874 139.64C940.834 146.147 930.807 149.4 917.794 149.4ZM917.794 146.2C919.927 146.2 922.007 145.133 924.034 143C926.167 140.867 927.927 137.4 929.314 132.6C930.7 127.8 931.394 121.667 931.394 114.2C931.394 106.733 930.647 100.6 929.154 95.8C927.767 91 925.954 87.5333 923.714 85.4C921.58 83.2667 919.34 82.2 916.994 82.2C912.62 82.2 909.1 84.3333 906.434 88.6C903.874 92.8667 902.594 99.5333 902.594 108.6C902.594 122.147 904.034 131.8 906.914 137.56C909.9 143.32 913.527 146.2 917.794 146.2ZM1019.41 149.4C1010.77 149.4 1002.93 147.107 995.893 142.52C988.853 137.933 983.253 131.267 979.093 122.52C975.039 113.667 973.013 103.16 973.013 91C973.013 78.84 975.039 68.3867 979.093 59.64C983.253 50.7867 988.853 44.0667 995.893 39.48C1002.93 34.8933 1010.77 32.6 1019.41 32.6C1028.05 32.6 1035.89 34.8933 1042.93 39.48C1049.97 44.0667 1055.52 50.7867 1059.57 59.64C1063.73 68.3867 1065.81 78.84 1065.81 91C1065.81 103.16 1063.73 113.667 1059.57 122.52C1055.52 131.267 1049.97 137.933 1042.93 142.52C1035.89 147.107 1028.05 149.4 1019.41 149.4ZM1019.41 146.2C1031.68 146.2 1037.81 127.8 1037.81 91C1037.81 54.2 1031.68 35.8 1019.41 35.8C1007.15 35.8 1001.01 54.2 1001.01 91C1001.01 127.8 1007.15 146.2 1019.41 146.2Z" fill="black"/>
</svg>
