<svg width="1169" height="102" viewBox="0 0 1169 102" fill="none" xmlns="http://www.w3.org/2000/svg">
<path fill-rule="evenodd" clip-rule="evenodd" d="M27.8875 0.0475915C26.5547 0.190982 25.1997 0.609986 24.2772 1.16402C23.6944 1.51398 22.8912 2.23553 22.4604 2.79613C21.6811 3.80995 21.1243 5.34009 20.9119 7.05088C20.7201 8.59704 20.7802 11.9707 21.0299 13.6647C21.3983 16.1643 22.2961 18.3138 23.9351 20.6205C24.1845 20.9714 25.383 22.5294 26.5985 24.0826C30.0675 28.5158 30.3634 28.9267 30.953 30.1288C31.6228 31.4947 31.7731 32.531 31.728 35.4752C31.7019 37.1831 31.6831 37.4607 31.5633 37.903C31.3798 38.5802 31.1353 39.0086 30.7878 39.2612C30.3908 39.5499 30.0698 39.6254 29.3716 39.5942C28.868 39.5718 28.7293 39.5403 28.4405 39.3824C27.9391 39.1083 27.6526 38.7077 27.4349 37.9762C27.3318 37.6299 27.3193 37.1821 27.2985 33.0802L27.2756 28.5653H23.8655H20.4554L20.4796 33.9417C20.5058 39.7826 20.4963 39.6159 20.8799 40.9772C21.0767 41.6758 21.5726 42.7354 21.9511 43.2657C22.3434 43.8155 23.2085 44.6261 23.79 44.9886C24.6235 45.5083 25.6717 45.8837 26.8657 46.0901C27.6507 46.2259 30.3553 46.2824 31.3085 46.183C33.9675 45.9056 35.862 44.8917 37.1815 43.0399C37.8184 42.146 38.2607 41.1423 38.5981 39.8254C39.0018 38.2493 39.0425 37.7827 39.0425 34.7234C39.0425 32.8286 39.0164 31.772 38.9582 31.3094C38.6164 28.592 37.8572 26.6939 36.1249 24.226C35.8416 23.8223 34.3891 21.9127 32.8972 19.9823C31.4053 18.0519 29.9741 16.1719 29.7169 15.8043C28.8165 14.5179 28.2912 13.4419 28.0337 12.3565C27.9268 11.9061 27.8997 11.5212 27.8738 10.0858C27.8385 8.13828 27.8883 7.62464 28.1713 7.01636C28.4669 6.38109 28.9799 6.10273 29.8551 6.10273C30.8526 6.10273 31.4866 6.64694 31.6745 7.66452C31.7194 7.90753 31.7439 9.32337 31.7439 11.6663V15.292H35.0953H38.4468L38.4204 10.8409C38.3979 7.06339 38.3778 6.29335 38.2873 5.75175C37.9897 3.97127 37.4511 2.76544 36.5512 1.86445C35.6408 0.953115 34.4439 0.413247 32.7001 0.127551C31.9675 0.00751618 28.7558 -0.0458325 27.8875 0.0475915ZM0 23.0773V45.7314H3.44211H6.88423V35.7764V25.8213H9.21084H11.5375V35.7764V45.7314H15.0114H18.4854V23.0773V0.423266H15.0114H11.5375V9.48489V18.5465H9.21084H6.88423V9.48489V0.423266H3.44211H0V23.0773ZM40.9866 23.0773V45.7314H49.0182H57.0498V42.2854V38.8394H52.4922H47.9346V32.2985V25.7575H51.3449H54.7551V22.3115V18.8656H51.3449H47.9346V12.9309V6.99613H52.301H56.6674V3.7097V0.423266H48.827H40.9866V23.0773ZM69.0303 0.534941C69.0285 0.596394 67.7872 10.7835 66.2719 23.173L63.5165 45.6995L66.5719 45.7161C68.2523 45.7252 69.6417 45.7181 69.6594 45.7004C69.6771 45.6826 69.8942 43.7723 70.1417 41.4554L70.5917 37.2426L73.0785 37.2593L75.5654 37.276L76.0146 41.4877L76.4638 45.6995L79.7994 45.716L83.1351 45.7325L83.1 45.5245C83.0807 45.4102 81.7513 35.2155 80.1458 22.8699L77.2266 0.423266H73.1301C69.2723 0.423266 69.0333 0.429775 69.0303 0.534941ZM84.2043 23.0773V45.7314H87.6464H91.0885V35.6168V25.5023L91.9331 25.5039C93.7354 25.5074 94.4631 25.6686 94.8805 26.1569C95.3544 26.7111 95.3196 26.0557 95.3631 35.2339C95.391 41.1107 95.4237 43.5938 95.4775 43.9127C95.5911 44.5855 95.7297 45.0929 95.8871 45.4123L96.0286 45.6995L99.4548 45.716L102.881 45.7325V45.5741C102.881 45.4869 102.797 45.2042 102.695 44.9458C102.259 43.8483 102.287 44.4982 102.243 34.3405C102.207 25.8481 102.196 25.115 102.091 24.6727C101.743 23.1996 101.058 22.2529 99.8205 21.5367L99.3086 21.2404L99.6765 21.0341C99.8789 20.9207 100.292 20.5784 100.594 20.2734C101.059 19.8035 101.193 19.6175 101.472 19.053C101.858 18.2689 102.086 17.4269 102.184 16.4193C102.229 15.9515 102.244 14.0519 102.228 10.8888C102.201 5.65227 102.195 5.55597 101.821 4.31593C101.154 2.10203 99.5731 0.864095 96.9699 0.5172C96.4158 0.443367 95.1203 0.425499 90.2439 0.424542L84.2043 0.423266V23.0773ZM103.455 3.7097V6.99613H106.355H109.255V26.3638V45.7314H112.665H116.076V26.3638V6.99613H118.976H121.876V3.7097V0.423266H112.665H103.455V3.7097ZM133.706 0.662123C133.685 0.793963 132.45 10.8952 130.961 23.1092C129.471 35.3233 128.237 45.4099 128.217 45.524L128.181 45.7314H131.276C132.977 45.7314 134.37 45.7238 134.37 45.7145C134.37 45.7053 134.571 43.8319 134.816 41.5515C135.062 39.2711 135.262 37.3691 135.262 37.3247C135.262 37.2611 135.787 37.2441 137.745 37.2441H140.228L140.263 37.4515C140.308 37.7192 141.127 45.4553 141.127 45.6124C141.127 45.727 141.251 45.7314 144.474 45.7314H147.821L147.784 45.4921C147.764 45.3605 146.435 35.1733 144.831 22.854L141.916 0.455173L137.83 0.438773L133.744 0.422309L133.706 0.662123ZM148.903 23.0767V45.7314H151.995H155.086V32.7983C155.086 25.6852 155.101 19.88 155.119 19.8979C155.137 19.9158 156.587 25.628 158.341 32.5916C160.096 39.5552 161.559 45.3605 161.594 45.4921L161.657 45.7314H164.459H167.261V23.0773V0.423266H164.138H161.014L161.009 12.5001C161.007 19.1424 160.987 24.5339 160.967 24.4812C160.946 24.4286 159.621 19.0012 158.022 12.4203L155.116 0.455173L152.01 0.438581L148.903 0.422053V23.0767ZM169.811 23.0749V45.7314H175.556C181.784 45.7314 181.981 45.7221 183.179 45.3747C185.667 44.6527 187.193 42.8522 187.783 39.9402C188.082 38.4619 188.073 38.9772 188.073 22.8859C188.073 8.77215 188.065 7.61022 187.963 6.89588C187.42 3.12088 185.777 1.23454 182.456 0.57291C181.944 0.470999 181.314 0.458236 175.851 0.439283L169.811 0.418352V23.0749ZM94.1758 6.77144C94.5946 6.92728 94.9869 7.33077 95.1757 7.79974L95.3274 8.17669L95.3462 12.3884C95.3591 15.2816 95.3427 16.7331 95.2937 17.0247C95.1432 17.9208 94.6519 18.6062 93.968 18.8741C93.6491 18.9991 93.4575 19.0191 92.3475 19.0431L91.0885 19.0704V12.8364V6.60246L92.4749 6.62843C93.6177 6.64981 93.9166 6.67495 94.1758 6.77144ZM179.543 6.70865C180.143 6.88707 180.565 7.38565 180.827 8.22494C180.922 8.52978 180.933 9.803 180.952 22.5349C180.968 32.9528 180.954 36.632 180.899 36.9888C180.794 37.6644 180.62 38.0825 180.295 38.4448C179.799 38.9969 179.202 39.1572 177.635 39.158L176.695 39.1585V22.8859V6.61325H177.958C178.894 6.61325 179.305 6.63801 179.543 6.70865ZM73.9094 22.0563C74.3827 26.426 74.7858 30.0945 74.805 30.2086L74.8399 30.416H73.0483H71.2567L71.2948 30.1447C71.3272 29.9137 72.972 14.2935 72.993 14.0174C72.9994 13.9325 73.0035 13.9324 73.0245 14.0157C73.0378 14.0683 73.436 17.6866 73.9094 22.0563ZM138.63 22.3754L139.504 30.384L137.756 30.401C136.795 30.4103 135.997 30.4066 135.983 30.3926C135.956 30.3662 137.583 14.7764 137.665 14.271C137.706 14.0197 137.714 14.0077 137.734 14.1752C137.746 14.2805 138.149 17.9706 138.63 22.3754ZM45.3849 47.7135C44.258 47.8355 42.9499 48.1905 42.1659 48.5873C40.9343 49.2107 39.9241 50.2277 39.2979 51.4747C38.4776 53.1082 38.1902 54.9685 38.2677 58.1432C38.3107 59.904 38.3769 60.7126 38.5684 61.8126C38.9062 63.7539 39.6035 65.5299 40.7176 67.2872C41.3125 68.2256 41.5427 68.5327 44.1718 71.8952C47.4926 76.1426 47.873 76.6717 48.4143 77.7971C49.0453 79.1088 49.153 79.7193 49.1931 82.2122C49.246 85.4992 49.0102 86.5051 48.0604 87.0444C47.7261 87.2343 47.6811 87.2425 46.9785 87.2425C46.2857 87.2425 46.2268 87.2322 45.9055 87.054C45.5025 86.8305 45.2923 86.597 45.0822 86.1395C44.7709 85.4617 44.7521 85.1435 44.7497 80.5261L44.7475 76.2346H41.3342H37.921L37.9451 81.6428C37.9713 87.5156 37.9604 87.3242 38.343 88.6464C38.8409 90.3673 39.7642 91.6704 41.1182 92.5634C42.0084 93.1506 43.041 93.5337 44.3643 93.7678C45.2751 93.9289 48.6645 93.9237 49.5601 93.7598C50.7997 93.5329 51.8451 93.1349 52.7313 92.5524C54.6943 91.2623 55.8753 89.1415 56.3606 86.0354C56.5246 84.9857 56.5963 81.319 56.4818 79.8271C56.2745 77.1233 55.7166 75.3058 54.4548 73.2246C53.6977 71.9758 53.5333 71.7545 49.2484 66.2157C46.7911 63.0393 46.1311 62.021 45.7083 60.7538C45.3732 59.7492 45.3072 59.1091 45.3358 57.1407C45.3586 55.5681 45.3744 55.359 45.4986 54.9844C45.7615 54.1915 46.218 53.8496 47.094 53.7895C48.0789 53.7219 48.7003 54.0758 49.0246 54.8887L49.1773 55.2716L49.1966 59.1164L49.2159 62.9612H52.5592H55.9025L55.9019 59.1483C55.9012 54.1545 55.8323 53.2279 55.3549 51.7937C55.0249 50.8021 54.7006 50.2714 53.9901 49.5602C53.657 49.2268 53.2214 48.8583 53.0221 48.7413C52.2739 48.3021 51.3156 47.9852 50.1656 47.7968C49.4448 47.6787 46.225 47.6226 45.3849 47.7135ZM75.1847 47.6847C73.4821 47.8545 72.0042 48.3732 70.9412 49.174C69.212 50.4767 68.2015 52.5071 67.811 55.463C67.7432 55.9771 67.7268 59.0987 67.7268 71.5123V86.9235L67.8701 87.7129C68.3977 90.6173 69.9271 92.7766 72.0329 93.5896C72.9138 93.9297 73.3024 93.9965 74.4198 93.9999C75.5485 94.0033 75.9509 93.9327 76.7858 93.5848C78.3292 92.9416 79.9402 91.3044 80.7603 89.546L80.9955 89.0416L81.1967 89.7694C81.3073 90.1696 81.5632 91.1503 81.7652 91.9486L82.1327 93.4003L84.0929 93.4004L86.0532 93.4006L86.037 79.6327L86.021 65.8648L81.2243 65.8484L76.4277 65.832V69.3423V72.8524H77.959H79.4904L79.4729 78.9945L79.4555 85.1367L79.3067 85.5056C78.8917 86.5351 78.1247 87.0377 76.9684 87.0381C76.1054 87.0385 75.5307 86.6732 75.1287 85.8687C74.7176 85.0459 74.7385 85.8699 74.7385 70.4913C74.7385 57.3969 74.7457 56.456 74.8493 56.0527C75.1644 54.8254 75.6939 54.337 76.7568 54.2931C77.9699 54.2429 78.5917 54.7016 78.9031 55.8765C78.9769 56.1551 79.0022 56.8797 79.024 59.3398L79.0516 62.4507H82.3987H85.7457L85.7164 58.8611C85.6862 55.1679 85.6583 54.7102 85.3817 53.3732C85.2336 52.6569 84.9199 51.7521 84.6131 51.1556C83.6491 49.2814 82.0724 48.2283 79.5849 47.7973C79.0316 47.7014 75.8366 47.6197 75.1847 47.6847ZM122.418 47.7168C121.085 47.8602 119.73 48.2792 118.808 48.8333C118.225 49.1832 117.422 49.9048 116.991 50.4654C116.212 51.4792 115.655 53.0093 115.443 54.7201C115.251 56.2663 115.311 59.6399 115.561 61.334C115.896 63.6132 116.695 65.6398 118.061 67.6835C118.425 68.2275 119.864 70.1324 121.26 71.9166C124.595 76.1815 124.968 76.7037 125.555 77.9399C126.157 79.206 126.301 80.2653 126.259 83.1027C126.233 84.8543 126.214 85.1282 126.094 85.5722C125.74 86.878 125.137 87.3312 123.843 87.2632C122.84 87.2104 122.29 86.7369 121.965 85.6454C121.862 85.2991 121.85 84.8513 121.829 80.7494L121.806 76.2346H118.396H114.986L115.01 81.6109C115.036 87.4556 115.026 87.2797 115.412 88.6464C115.61 89.3484 116.105 90.4075 116.482 90.935C116.871 91.4804 117.738 92.2946 118.307 92.6489C119.147 93.172 120.138 93.5291 121.366 93.7509C122.172 93.8963 124.837 93.9567 125.839 93.8522C128.498 93.5748 130.393 92.5609 131.712 90.7091C132.349 89.8153 132.791 88.8115 133.129 87.4946C133.532 85.9185 133.573 85.452 133.573 82.3926C133.573 80.4979 133.547 79.4412 133.489 78.9786C133.147 76.262 132.39 74.3695 130.656 71.8952C130.373 71.4916 128.921 69.5819 127.428 67.6516C125.936 65.7212 124.504 63.8411 124.247 63.4736C123.347 62.186 122.822 61.1107 122.564 60.0258C122.457 59.5753 122.43 59.1904 122.404 57.7551C122.369 55.8075 122.419 55.2939 122.702 54.6856C122.997 54.0503 123.511 53.772 124.386 53.772C125.218 53.772 125.856 54.1965 126.116 54.9211C126.234 55.2523 126.242 55.4836 126.26 59.1164L126.28 62.9612H129.624H132.968V59.0459C132.968 54.1369 132.896 53.1868 132.418 51.7552C131.669 49.5084 130.017 48.2413 127.263 47.7998C126.496 47.6769 123.298 47.6221 122.418 47.7168ZM142.338 47.7119C140.501 47.9319 139.041 48.5663 137.91 49.6362C136.397 51.0663 135.591 53.036 135.39 55.7926C135.31 56.8879 135.309 84.2012 135.389 85.4377C135.642 89.3377 136.98 91.8156 139.501 93.052C140.84 93.7084 141.839 93.9077 144.04 93.957C146.574 94.0138 147.962 93.8035 149.304 93.1596C151.414 92.147 152.698 90.2994 153.262 87.4659C153.538 86.0798 153.557 85.5795 153.557 79.478V73.682H150.181H146.805L146.784 79.4412C146.765 85.0478 146.761 85.2118 146.633 85.626C146.382 86.4371 145.888 86.9801 145.242 87.1545C144.836 87.264 143.886 87.1966 143.578 87.0363C143.001 86.7366 142.617 86.109 142.466 85.2213C142.418 84.9386 142.402 80.4759 142.415 70.3318L142.433 55.8459L142.577 55.4651C142.763 54.9717 143.01 54.6726 143.395 54.4742C143.677 54.3287 143.776 54.3144 144.503 54.3144C145.248 54.3144 145.324 54.3259 145.629 54.4873C146.259 54.82 146.598 55.393 146.731 56.3504C146.774 56.6618 146.8 58.3869 146.8 61.0195V65.1947H150.182H153.564L153.54 60.0417C153.514 54.455 153.511 54.4011 153.138 52.965C152.374 50.0189 150.553 48.3959 147.375 47.8261C146.764 47.7166 146.318 47.691 144.728 47.6745C143.676 47.6636 142.601 47.6805 142.338 47.7119ZM184.065 47.7159C180.71 48.0701 178.568 49.6337 177.4 52.5818C176.95 53.7163 176.667 55.2209 176.57 56.9946C176.487 58.4908 176.486 82.8199 176.568 84.3709C176.734 87.5012 177.435 89.7192 178.76 91.3013C179.732 92.4628 180.933 93.1924 182.581 93.6231C183.651 93.9025 184.083 93.9424 186.033 93.9411C187.649 93.9401 187.979 93.9225 188.647 93.8016C192.577 93.0909 194.568 90.6999 195.226 85.9024C195.333 85.1266 195.34 84.1408 195.34 70.6827C195.34 57.2459 195.332 56.2382 195.227 55.4706C194.549 50.5541 192.249 48.1445 187.823 47.7136C187.025 47.6359 184.809 47.6372 184.065 47.7159ZM205.316 47.6838C203.503 47.8957 202.37 48.2397 201.33 48.8934C199.326 50.1525 198.229 52.0843 197.687 55.3035C197.582 55.9274 197.573 56.9519 197.553 70.1722C197.531 84.636 197.538 85.1685 197.769 86.5406C198.41 90.3461 200.235 92.6689 203.276 93.5489C204.442 93.8864 204.945 93.9389 207.005 93.9389C208.582 93.9389 209.029 93.9185 209.555 93.8223C213.344 93.1289 215.393 90.8919 216.086 86.692C216.346 85.116 216.352 84.6682 216.328 70.0765C216.307 57.1554 216.297 55.9789 216.195 55.3035C215.51 50.7525 213.523 48.5057 209.555 47.7963C209.063 47.7085 205.837 47.6229 205.316 47.6838ZM0 70.7466V93.4006H5.74463C10.6048 93.4006 11.5917 93.3853 12.1547 93.3017C15.3777 92.8226 17.2623 91.0067 17.9681 87.7005C18.2705 86.2839 18.2623 86.7602 18.2623 70.5232C18.2623 56.1242 18.2555 55.1627 18.1481 54.4547C17.8414 52.4322 17.2915 51.1389 16.291 50.0865C15.497 49.2515 14.7444 48.8116 13.4832 48.4457C12.3236 48.1093 11.9546 48.0925 5.7336 48.0925H0V70.7466ZM20.7164 70.7466V93.4006H28.7162H36.7159V89.9546V86.5087H32.1583H27.6007V79.9677V73.4268H31.0428H34.4849V69.9808V66.5348H31.0428H27.6007V60.6001V54.6654H31.967H36.3334V51.3789V48.0925H28.5249H20.7164V70.7466ZM58.4522 70.7466V93.4006H61.8943H65.3364V70.7466V48.0925H61.8943H58.4522V70.7466ZM88.4113 70.7466V93.4006H91.5346H94.6578L94.6739 80.5468L94.69 67.6931L97.8094 80.0842C99.5251 86.8993 100.984 92.6835 101.052 92.938L101.174 93.4006H103.972H106.769V70.7466V48.0925H103.646H100.522L100.518 60.1693C100.516 66.8116 100.493 72.1888 100.467 72.1186C100.44 72.0484 99.1156 66.6139 97.5226 60.042L94.6263 48.093L91.5188 48.0928L88.4113 48.0925V70.7466ZM155.724 70.7466V93.4006H159.166H162.608V83.4456V73.4906H164.935H167.261V83.4456V93.4006H170.735H174.209V70.7466V48.0925H170.735H167.261V57.1541V66.2157H164.935H162.608V57.1541V48.0925H159.166H155.724V70.7466ZM218.702 70.7466V93.4006H226.351H234V89.8908V86.381H229.793H225.586V67.2368V48.0925H222.144H218.702V70.7466ZM9.94458 54.4476C10.5233 54.7158 10.8631 55.2244 11.0777 56.1441C11.179 56.5779 11.1869 57.6129 11.1869 70.4913C11.1869 83.8177 11.1822 84.3912 11.0679 84.8814C10.8548 85.7948 10.5234 86.2686 9.89595 86.5561C9.45026 86.7604 8.956 86.8249 7.82443 86.8265L6.88423 86.8277V70.5506V54.2735L8.27063 54.294C9.51662 54.3123 9.68617 54.3279 9.94458 54.4476ZM187.076 54.5054C187.65 54.8206 188.011 55.3769 188.217 56.2622C188.321 56.7082 188.328 57.65 188.328 70.7146C188.328 83.9625 188.322 84.7178 188.213 85.2259C187.997 86.2288 187.511 86.8885 186.819 87.1186C186.312 87.2873 185.372 87.228 184.902 86.9976C184.49 86.7961 184.155 86.4388 183.936 85.9686C183.594 85.2327 183.611 86.0399 183.611 70.7146C183.611 57.0852 183.616 56.4647 183.729 56.0242C183.946 55.1768 184.386 54.6394 185.059 54.3999C185.325 54.3049 185.536 54.2838 186.065 54.2988C186.667 54.3159 186.769 54.3368 187.076 54.5054ZM208.031 54.489C208.624 54.7965 209.053 55.4695 209.215 56.3467C209.284 56.7166 209.3 59.4653 209.3 70.8423V84.8814L209.156 85.4238C208.976 86.0983 208.671 86.6034 208.28 86.8746C207.872 87.1568 207.556 87.2284 206.846 87.1994C206.372 87.1801 206.172 87.1414 205.926 87.022C205.243 86.6899 204.822 86.0266 204.647 85.0063C204.56 84.4945 204.551 82.8448 204.567 70.4247C204.585 57.1209 204.592 56.4012 204.701 56.0401C204.918 55.3261 205.193 54.8911 205.598 54.6231C206.016 54.3457 206.301 54.2824 207.037 54.3026C207.614 54.3184 207.751 54.3441 208.031 54.489Z" fill="#591619"/>
<path d="M1005.16 43.4004L1007.56 42.8004V17.2004L1005.16 16.6004V16.0004H1026.36V23.2004H1025.16C1024.66 22.8004 1024.22 22.2937 1023.84 21.6804C1022.99 20.2404 1022.56 18.6804 1022.56 17.0004H1014.16V27.6004H1016.36C1020.76 27.6004 1023.92 28.3071 1025.84 29.7204C1027.79 31.1337 1028.76 33.1604 1028.76 35.8004C1028.76 38.4404 1027.79 40.4671 1025.84 41.8804C1023.92 43.2937 1020.76 44.0004 1016.36 44.0004H1005.16V43.4004ZM1016.36 43.0004C1018.04 43.0004 1019.39 42.3871 1020.4 41.1604C1021.44 39.9071 1021.96 38.1204 1021.96 35.8004C1021.96 33.4804 1021.44 31.7071 1020.4 30.4804C1019.39 29.2271 1018.04 28.6004 1016.36 28.6004H1014.16V43.0004H1016.36Z" fill="#591619"/>
<path d="M1031.16 42.2004C1031.16 40.6271 1031.47 39.2004 1032.08 37.9204C1032.72 36.6137 1033.49 35.4804 1034.4 34.5204C1035.31 33.5604 1036.49 32.4271 1037.96 31.1204C1039.32 29.9204 1040.39 28.9204 1041.16 28.1204C1041.93 27.2937 1042.59 26.3737 1043.12 25.3604C1043.65 24.3204 1043.92 23.2004 1043.92 22.0004C1043.92 20.2404 1043.49 18.8671 1042.64 17.8804C1041.79 16.8937 1040.68 16.4004 1039.32 16.4004C1038.55 16.4004 1037.76 16.5071 1036.96 16.7204L1036.12 17.0004V23.4004L1035.6 23.5204C1035.17 23.5737 1034.81 23.6004 1034.52 23.6004C1033.61 23.6004 1032.88 23.3337 1032.32 22.8004C1031.79 22.2404 1031.52 21.5071 1031.52 20.6004C1031.52 19.7471 1031.84 18.9204 1032.48 18.1204C1033.15 17.3204 1034.12 16.6671 1035.4 16.1604C1036.71 15.6537 1038.28 15.4004 1040.12 15.4004C1043.72 15.4004 1046.39 16.1204 1048.12 17.5604C1049.85 19.0004 1050.72 21.0137 1050.72 23.6004C1050.72 25.2271 1050.29 26.6271 1049.44 27.8004C1048.61 28.9737 1047.59 29.9471 1046.36 30.7204C1045.16 31.4937 1043.55 32.3737 1041.52 33.3604C1039.81 34.1871 1038.43 34.9204 1037.36 35.5604C1036.32 36.1737 1035.35 36.9204 1034.44 37.8004C1033.56 38.6804 1032.93 39.6804 1032.56 40.8004H1047.36C1047.55 39.3604 1048 38.1604 1048.72 37.2004C1049.01 36.7471 1049.36 36.3471 1049.76 36.0004H1050.96V44.0004H1031.16V42.2004Z" fill="#591619"/>
<path d="M1054.17 42.2004C1054.17 40.6271 1054.48 39.2004 1055.09 37.9204C1055.73 36.6137 1056.5 35.4804 1057.41 34.5204C1058.32 33.5604 1059.5 32.4271 1060.97 31.1204C1062.33 29.9204 1063.4 28.9204 1064.17 28.1204C1064.94 27.2937 1065.6 26.3737 1066.13 25.3604C1066.66 24.3204 1066.93 23.2004 1066.93 22.0004C1066.93 20.2404 1066.5 18.8671 1065.65 17.8804C1064.8 16.8937 1063.69 16.4004 1062.33 16.4004C1061.56 16.4004 1060.77 16.5071 1059.97 16.7204L1059.13 17.0004V23.4004L1058.61 23.5204C1058.18 23.5737 1057.82 23.6004 1057.53 23.6004C1056.62 23.6004 1055.89 23.3337 1055.33 22.8004C1054.8 22.2404 1054.53 21.5071 1054.53 20.6004C1054.53 19.7471 1054.85 18.9204 1055.49 18.1204C1056.16 17.3204 1057.13 16.6671 1058.41 16.1604C1059.72 15.6537 1061.29 15.4004 1063.13 15.4004C1066.73 15.4004 1069.4 16.1204 1071.13 17.5604C1072.86 19.0004 1073.73 21.0137 1073.73 23.6004C1073.73 25.2271 1073.3 26.6271 1072.45 27.8004C1071.62 28.9737 1070.6 29.9471 1069.37 30.7204C1068.17 31.4937 1066.56 32.3737 1064.53 33.3604C1062.82 34.1871 1061.44 34.9204 1060.37 35.5604C1059.33 36.1737 1058.36 36.9204 1057.45 37.8004C1056.57 38.6804 1055.94 39.6804 1055.57 40.8004H1070.37C1070.56 39.3604 1071.01 38.1604 1071.73 37.2004C1072.02 36.7471 1072.37 36.3471 1072.77 36.0004H1073.97V44.0004H1054.17V42.2004Z" fill="#591619"/>
<path d="M1075.58 43.0004H1078.78C1079.42 42.5204 1080.07 41.8271 1080.74 40.9204C1082.1 38.9737 1082.84 36.6671 1082.98 34.0004L1083.78 17.4004L1080.98 16.6004V16.0004H1101.98V16.6004L1099.58 17.2004V43.0004H1103.38V50.8004H1102.18C1101.54 50.3471 1100.96 49.7604 1100.46 49.0404C1099.34 47.4937 1098.78 45.8137 1098.78 44.0004H1080.18C1080.18 45.7871 1079.6 47.4671 1078.46 49.0404C1077.95 49.7604 1077.39 50.3471 1076.78 50.8004H1075.58V43.0004ZM1092.98 43.0004V17.0004H1084.98L1084.18 34.0004C1084.04 36.6937 1083.34 39.0004 1082.06 40.9204C1081.47 41.8004 1080.84 42.4937 1080.18 43.0004H1092.98Z" fill="#591619"/>
<path d="M1113.58 44.6004C1111.74 44.6004 1110.17 44.3471 1108.86 43.8404C1107.58 43.3337 1106.61 42.6804 1105.94 41.8804C1105.3 41.0804 1104.98 40.2537 1104.98 39.4004C1104.98 38.4937 1105.25 37.7737 1105.78 37.2404C1106.34 36.6804 1107.08 36.4004 1107.98 36.4004C1108.2 36.4004 1108.41 36.4271 1108.62 36.4804C1108.84 36.5071 1108.98 36.5204 1109.06 36.5204L1109.58 36.6004V43.0004C1109.61 43.0004 1109.89 43.1071 1110.42 43.3204C1111.12 43.5071 1111.9 43.6004 1112.78 43.6004C1114.65 43.6004 1116.08 43.0404 1117.06 41.9204C1118.08 40.7737 1118.58 39.0671 1118.58 36.8004C1118.58 34.4804 1118.09 32.7337 1117.1 31.5604C1116.14 30.3871 1114.84 29.8004 1113.18 29.8004H1111.18V28.8004H1113.18C1114.38 28.8004 1115.38 28.2671 1116.18 27.2004C1116.98 26.1337 1117.38 24.6004 1117.38 22.6004C1117.38 20.6004 1116.97 19.0671 1116.14 18.0004C1115.32 16.9337 1114.26 16.4004 1112.98 16.4004C1112.29 16.4004 1111.62 16.5071 1110.98 16.7204C1110.9 16.7471 1110.64 16.8404 1110.18 17.0004V23.4004L1109.66 23.5204C1109.24 23.5737 1108.88 23.6004 1108.58 23.6004C1107.68 23.6004 1106.94 23.3337 1106.38 22.8004C1105.85 22.2404 1105.58 21.5071 1105.58 20.6004C1105.58 19.7737 1105.9 18.9604 1106.54 18.1604C1107.18 17.3604 1108.12 16.7071 1109.34 16.2004C1110.6 15.6671 1112.08 15.4004 1113.78 15.4004C1116.02 15.4004 1117.92 15.7337 1119.46 16.4004C1121.04 17.0404 1122.21 17.9071 1122.98 19.0004C1123.78 20.0937 1124.18 21.2937 1124.18 22.6004C1124.18 24.1204 1123.8 25.3337 1123.02 26.2404C1122.25 27.1204 1121.24 27.8271 1119.98 28.3604C1118.76 28.8404 1117.36 29.1204 1115.78 29.2004V29.4004C1117.54 29.4804 1119.14 29.7871 1120.58 30.3204C1123.78 31.6004 1125.38 33.7604 1125.38 36.8004C1125.38 39.1471 1124.41 41.0404 1122.46 42.4804C1120.54 43.8937 1117.58 44.6004 1113.58 44.6004Z" fill="#591619"/>
<path d="M1130.18 44.0004V43.4004L1132.98 42.6004V20.6404L1128.78 23.6004L1127.98 22.6004L1135.26 16.0004H1139.58V42.6004L1142.38 43.4004V44.0004H1130.18Z" fill="#591619"/>
<path d="M1156.6 44.6004C1154.44 44.6004 1152.48 44.0271 1150.72 42.8804C1148.96 41.7337 1147.56 40.0671 1146.52 37.8804C1145.51 35.6671 1145 33.0404 1145 30.0004C1145 26.9604 1145.51 24.3471 1146.52 22.1604C1147.56 19.9471 1148.96 18.2671 1150.72 17.1204C1152.48 15.9737 1154.44 15.4004 1156.6 15.4004C1158.76 15.4004 1160.72 15.9737 1162.48 17.1204C1164.24 18.2671 1165.63 19.9471 1166.64 22.1604C1167.68 24.3471 1168.2 26.9604 1168.2 30.0004C1168.2 33.0404 1167.68 35.6671 1166.64 37.8804C1165.63 40.0671 1164.24 41.7337 1162.48 42.8804C1160.72 44.0271 1158.76 44.6004 1156.6 44.6004ZM1156.6 43.8004C1159.67 43.8004 1161.2 39.2004 1161.2 30.0004C1161.2 20.8004 1159.67 16.2004 1156.6 16.2004C1153.54 16.2004 1152 20.8004 1152 30.0004C1152 39.2004 1153.54 43.8004 1156.6 43.8004Z" fill="#591619"/>
<path d="M757.119 94.6004C752.852 94.6004 749.519 93.3337 747.119 90.8004C744.719 88.2671 743.519 84.6671 743.519 80.0004C743.519 76.9337 744.039 74.3071 745.079 72.1204C746.145 69.9071 747.625 68.2404 749.519 67.1204C751.439 65.9737 753.652 65.4004 756.159 65.4004C757.679 65.4004 759.212 65.8404 760.759 66.7204C761.345 67.0404 761.932 67.4671 762.519 68.0004C762.972 67.3071 763.439 66.7604 763.919 66.3604C764.399 66.0137 764.665 65.8271 764.719 65.8004H765.719V73.4004H764.119C763.772 72.1204 763.252 70.9604 762.559 69.9204C761.919 68.9071 761.119 68.0671 760.159 67.4004C759.225 66.7337 758.145 66.4004 756.919 66.4004C755.079 66.4004 753.545 67.4671 752.319 69.6004C751.119 71.7337 750.519 75.2004 750.519 80.0004C750.519 84.8804 751.172 88.3737 752.479 90.4804C753.812 92.5604 755.625 93.6004 757.919 93.6004C759.172 93.6004 760.359 93.2537 761.479 92.5604C762.625 91.8404 763.545 90.8937 764.239 89.7204C764.959 88.5471 765.319 87.3071 765.319 86.0004H766.319C766.319 87.5204 765.905 88.9471 765.079 90.2804C764.279 91.5871 763.172 92.6404 761.759 93.4404C760.372 94.2137 758.825 94.6004 757.119 94.6004Z" fill="#591619"/>
<path d="M769.334 93.4004L771.734 92.8004V75.2004L769.334 74.6004V74.0004H780.534V74.6004L778.134 75.2004V83.0004H779.534C780.308 83.0004 780.974 82.7604 781.534 82.2804C782.094 81.7737 782.494 81.1471 782.734 80.4004L783.734 76.8004C784.374 74.6671 785.574 73.6004 787.334 73.6004C788.534 73.6004 789.468 73.9204 790.134 74.5604C790.801 75.2004 791.134 76.0804 791.134 77.2004C791.134 78.2137 790.854 79.0004 790.294 79.5604C789.761 80.1204 789.041 80.4004 788.134 80.4004C787.761 80.4004 787.388 80.3737 787.014 80.3204L786.534 80.2004V74.8004C785.734 75.0137 785.201 75.6804 784.934 76.8004L783.934 80.4004C783.668 81.3337 783.228 82.0804 782.614 82.6404C782.401 82.8537 782.108 83.0404 781.734 83.2004H782.934C784.508 83.2004 785.734 83.5204 786.614 84.1604C787.521 84.7737 788.161 85.5871 788.534 86.6004L790.534 92.8004L792.534 93.4004V94.0004H788.334C786.921 94.0004 785.774 93.6804 784.894 93.0404C784.041 92.4004 783.454 91.5871 783.134 90.6004L780.934 84.0004H778.134V92.8004L780.534 93.4004V94.0004H769.334V93.4004Z" fill="#591619"/>
<path d="M793.934 101.4L796.334 100.8V75.2004L793.934 74.6004V74.0004H797.534C799.108 74.0004 800.348 74.5071 801.254 75.5204C801.601 75.9204 801.894 76.4137 802.134 77.0004C802.481 76.3071 802.921 75.7071 803.454 75.2004C804.654 74.0004 806.148 73.4004 807.934 73.4004C809.508 73.4004 810.908 73.8137 812.134 74.6404C813.361 75.4404 814.334 76.6404 815.054 78.2404C815.774 79.8137 816.134 81.7337 816.134 84.0004C816.134 87.4137 815.334 90.0404 813.734 91.8804C812.161 93.6937 810.028 94.6004 807.334 94.6004C806.054 94.6004 804.934 94.3337 803.974 93.8004C803.574 93.6137 803.161 93.3471 802.734 93.0004V100.8L805.134 101.4V102H793.934V101.4ZM805.734 93.4004C806.881 93.4004 807.761 92.7337 808.374 91.4004C809.014 90.0671 809.334 87.6004 809.334 84.0004C809.334 80.5604 809.041 78.1737 808.454 76.8404C807.894 75.4804 807.188 74.8004 806.334 74.8004C805.321 74.8004 804.414 75.3337 803.614 76.4004C803.268 76.8537 802.974 77.3871 802.734 78.0004V91.8004C803.108 92.1737 803.401 92.4404 803.614 92.6004C804.334 93.1337 805.041 93.4004 805.734 93.4004Z" fill="#591619"/>
<path d="M819.334 93.4004L821.734 92.8004V75.2004L819.334 74.6004V74.0004H830.534V74.6004L828.134 75.2004V82.0004H830.134C837.068 82.0004 840.534 84.0004 840.534 88.0004C840.534 92.0004 837.068 94.0004 830.134 94.0004H819.334V93.4004ZM841.334 94.0004V93.4004L843.734 92.8004V75.2004L841.334 74.6004V74.0004H852.534V74.6004L850.134 75.2004V92.8004L852.534 93.4004V94.0004H841.334ZM830.134 93.0004C831.308 93.0004 832.228 92.5871 832.894 91.7604C833.588 90.9071 833.934 89.6537 833.934 88.0004C833.934 86.3471 833.588 85.1071 832.894 84.2804C832.228 83.4271 831.308 83.0004 830.134 83.0004H828.134V93.0004H830.134Z" fill="#591619"/>
<path d="M855.74 94.0004V93.4004L858.14 92.8004V75.2004L855.74 74.6004V74.0004H866.94V74.6004L864.54 75.2004V83.4004H870.54V75.2004L868.14 74.6004V74.0004H879.34V74.6004L876.94 75.2004V92.8004L879.34 93.4004V94.0004H868.14V93.4004L870.54 92.8004V84.4004H864.54V92.8004L866.94 93.4004V94.0004H855.74Z" fill="#591619"/>
<path d="M882.537 94.0004V93.4004L884.937 92.8004V75.2004L882.537 74.6004V74.0004H893.737V74.6004L891.337 75.2004V83.4004H897.337V75.2004L894.937 74.6004V74.0004H906.137V74.6004L903.737 75.2004V92.8004L906.137 93.4004V94.0004H894.937V93.4004L897.337 92.8004V84.4004H891.337V92.8004L893.737 93.4004V94.0004H882.537Z" fill="#591619"/>
<path d="M909.334 94.0004V93.4004L911.734 92.8004V75.2004L909.334 74.6004V74.0004H920.534V74.6004L918.134 75.2004V88.4004L924.534 77.4004V75.2004L922.134 74.6004V74.0004H933.334V74.6004L930.934 75.2004V92.8004L933.334 93.4004V94.0004H922.134V93.4004L924.534 92.8004V79.6004L918.134 90.6004V92.8004L920.534 93.4004V94.0004H909.334Z" fill="#591619"/>
<path d="M936.522 93.4004L938.922 92.8004V75.2004L936.522 74.6004V74.0004H947.722V74.6004L945.322 75.2004V83.0004H946.722C947.495 83.0004 948.162 82.7604 948.722 82.2804C949.282 81.7737 949.682 81.1471 949.922 80.4004L950.922 76.8004C951.562 74.6671 952.762 73.6004 954.522 73.6004C955.722 73.6004 956.655 73.9204 957.322 74.5604C957.988 75.2004 958.322 76.0804 958.322 77.2004C958.322 78.2137 958.042 79.0004 957.482 79.5604C956.948 80.1204 956.228 80.4004 955.322 80.4004C954.948 80.4004 954.575 80.3737 954.202 80.3204L953.722 80.2004V74.8004C952.922 75.0137 952.388 75.6804 952.122 76.8004L951.122 80.4004C950.855 81.3337 950.415 82.0804 949.802 82.6404C949.588 82.8537 949.295 83.0404 948.922 83.2004H950.122C951.695 83.2004 952.922 83.5204 953.802 84.1604C954.708 84.7737 955.348 85.5871 955.722 86.6004L957.722 92.8004L959.722 93.4004V94.0004H955.522C954.108 94.0004 952.962 93.6804 952.082 93.0404C951.228 92.4004 950.642 91.5871 950.322 90.6004L948.122 84.0004H945.322V92.8004L947.722 93.4004V94.0004H936.522V93.4004Z" fill="#591619"/>
<path d="M972.122 94.6004C968.815 94.6004 966.215 93.6671 964.322 91.8004C962.455 89.9071 961.522 87.3071 961.522 84.0004C961.522 80.6937 962.455 78.1071 964.322 76.2404C966.215 74.3471 968.815 73.4004 972.122 73.4004C975.428 73.4004 978.015 74.3471 979.882 76.2404C981.775 78.1071 982.722 80.6937 982.722 84.0004C982.722 87.3071 981.775 89.9071 979.882 91.8004C978.015 93.6671 975.428 94.6004 972.122 94.6004ZM972.122 93.8004C973.188 93.8004 974.082 93.0537 974.802 91.5604C975.548 90.0671 975.922 87.5471 975.922 84.0004C975.922 80.4537 975.548 77.9337 974.802 76.4404C974.082 74.9471 973.188 74.2004 972.122 74.2004C971.055 74.2004 970.148 74.9471 969.402 76.4404C968.682 77.9337 968.322 80.4537 968.322 84.0004C968.322 87.5471 968.682 90.0671 969.402 91.5604C970.148 93.0537 971.055 93.8004 972.122 93.8004Z" fill="#591619"/>
<path d="M985.936 93.4004L988.336 92.8004V75.2004L985.936 74.6004V74.0004H996.136C998.456 74.0004 1000.36 74.2404 1001.86 74.7204C1003.38 75.2004 1004.47 75.8271 1005.14 76.6004C1005.8 77.3471 1006.14 78.1471 1006.14 79.0004C1006.14 80.0671 1005.79 80.9337 1005.1 81.6004C1004.43 82.2671 1003.58 82.7471 1002.54 83.0404C1001.42 83.3871 1000.22 83.5737 998.936 83.6004V83.8004C1000.51 83.8271 1001.91 84.0271 1003.14 84.4004C1004.36 84.8004 1005.36 85.3337 1006.14 86.0004C1006.94 86.6404 1007.34 87.5071 1007.34 88.6004C1007.34 90.1737 1006.51 91.4671 1004.86 92.4804C1003.23 93.4937 1000.59 94.0004 996.936 94.0004H985.936V93.4004ZM996.136 83.2004C997.069 83.2004 997.869 82.8137 998.536 82.0404C999.202 81.2671 999.536 80.2537 999.536 79.0004C999.536 77.8271 999.202 76.8671 998.536 76.1204C997.869 75.3737 997.069 75.0004 996.136 75.0004H994.736V83.2004H996.136ZM996.936 93.0004C998.082 93.0004 999.002 92.6137 999.696 91.8404C1000.39 91.0671 1000.74 89.9871 1000.74 88.6004C1000.74 87.2137 1000.39 86.1337 999.696 85.3604C999.002 84.5871 998.082 84.2004 996.936 84.2004H994.736V93.0004H996.936Z" fill="#591619"/>
<path d="M1017.95 94.6004C1015.58 94.6004 1013.75 94.0937 1012.47 93.0804C1011.19 92.0671 1010.55 90.7737 1010.55 89.2004C1010.55 88.1604 1010.78 87.1337 1011.23 86.1204C1011.42 85.6404 1011.66 85.2004 1011.95 84.8004C1013.05 84.5337 1014.23 84.2937 1015.51 84.0804C1018.39 83.6004 1020.94 83.3071 1023.15 83.2004V82.0004C1023.15 79.0404 1022.79 77.0004 1022.07 75.8804C1021.35 74.7604 1020.25 74.2004 1018.75 74.2004C1018.19 74.2004 1017.71 74.2671 1017.31 74.4004L1016.75 74.6004V80.6004L1016.23 80.7204C1015.81 80.7737 1015.45 80.8004 1015.15 80.8004C1014.25 80.8004 1013.51 80.5337 1012.95 80.0004C1012.42 79.4404 1012.15 78.7071 1012.15 77.8004C1012.15 76.5737 1012.77 75.5337 1013.99 74.6804C1015.25 73.8271 1017.1 73.4004 1019.55 73.4004C1021.63 73.4004 1023.42 73.7737 1024.91 74.5204C1026.43 75.2404 1027.58 76.2537 1028.35 77.5604C1029.15 78.8404 1029.55 80.3204 1029.55 82.0004V92.8004L1031.95 93.4004V94.0004H1028.35C1026.75 94.0004 1025.51 93.5071 1024.63 92.5204C1024.26 92.1204 1023.97 91.6137 1023.75 91.0004C1023.38 91.6671 1022.94 92.2671 1022.43 92.8004C1021.23 94.0004 1019.74 94.6004 1017.95 94.6004ZM1019.55 93.2004C1020.54 93.2004 1021.43 92.6671 1022.23 91.6004C1022.53 91.2004 1022.83 90.6671 1023.15 90.0004V84.2004C1021.93 84.2004 1020.75 84.2671 1019.63 84.4004C1018.81 84.5071 1018.25 84.5737 1017.95 84.6004C1017.82 84.8937 1017.69 85.2937 1017.55 85.8004C1017.29 86.8137 1017.15 87.8137 1017.15 88.8004C1017.15 90.2937 1017.38 91.4004 1017.83 92.1204C1018.29 92.8404 1018.86 93.2004 1019.55 93.2004Z" fill="#591619"/>
<path d="M1043.58 93.0004H1046.78C1047.42 92.5204 1048.08 91.8271 1048.74 90.9204C1050.1 88.9737 1050.85 86.6671 1050.98 84.0004L1051.78 67.4004L1048.98 66.6004V66.0004H1069.98V66.6004L1067.58 67.2004V93.0004H1071.38V100.8H1070.18C1069.54 100.347 1068.97 99.7604 1068.46 99.0404C1067.34 97.4937 1066.78 95.8137 1066.78 94.0004H1048.18C1048.18 95.7871 1047.61 97.4671 1046.46 99.0404C1045.96 99.7604 1045.4 100.347 1044.78 100.8H1043.58V93.0004ZM1060.98 93.0004V67.0004H1052.98L1052.18 84.0004C1052.05 86.6937 1051.34 89.0004 1050.06 90.9204C1049.48 91.8004 1048.85 92.4937 1048.18 93.0004H1060.98Z" fill="#591619"/>
<path d="M1081.39 94.6004C1079.02 94.6004 1077.19 94.0937 1075.91 93.0804C1074.63 92.0671 1073.99 90.7737 1073.99 89.2004C1073.99 88.1604 1074.22 87.1337 1074.67 86.1204C1074.86 85.6404 1075.1 85.2004 1075.39 84.8004C1076.49 84.5337 1077.67 84.2937 1078.95 84.0804C1081.83 83.6004 1084.38 83.3071 1086.59 83.2004V82.0004C1086.59 79.0404 1086.23 77.0004 1085.51 75.8804C1084.79 74.7604 1083.69 74.2004 1082.19 74.2004C1081.63 74.2004 1081.15 74.2671 1080.75 74.4004L1080.19 74.6004V80.6004L1079.67 80.7204C1079.25 80.7737 1078.89 80.8004 1078.59 80.8004C1077.69 80.8004 1076.95 80.5337 1076.39 80.0004C1075.86 79.4404 1075.59 78.7071 1075.59 77.8004C1075.59 76.5737 1076.21 75.5337 1077.43 74.6804C1078.69 73.8271 1080.54 73.4004 1082.99 73.4004C1085.07 73.4004 1086.86 73.7737 1088.35 74.5204C1089.87 75.2404 1091.02 76.2537 1091.79 77.5604C1092.59 78.8404 1092.99 80.3204 1092.99 82.0004V92.8004L1095.39 93.4004V94.0004H1091.79C1090.19 94.0004 1088.95 93.5071 1088.07 92.5204C1087.7 92.1204 1087.41 91.6137 1087.19 91.0004C1086.82 91.6671 1086.38 92.2671 1085.87 92.8004C1084.67 94.0004 1083.18 94.6004 1081.39 94.6004ZM1082.99 93.2004C1083.98 93.2004 1084.87 92.6671 1085.67 91.6004C1085.97 91.2004 1086.27 90.6671 1086.59 90.0004V84.2004C1085.37 84.2004 1084.19 84.2671 1083.07 84.4004C1082.25 84.5071 1081.69 84.5737 1081.39 84.6004C1081.26 84.8937 1081.13 85.2937 1080.99 85.8004C1080.73 86.8137 1080.59 87.8137 1080.59 88.8004C1080.59 90.2937 1080.82 91.4004 1081.27 92.1204C1081.73 92.8404 1082.3 93.2004 1082.99 93.2004Z" fill="#591619"/>
<path d="M1097.41 101.4L1099.81 100.8V75.2004L1097.41 74.6004V74.0004H1101.01C1102.58 74.0004 1103.82 74.5071 1104.73 75.5204C1105.08 75.9204 1105.37 76.4137 1105.61 77.0004C1105.96 76.3071 1106.4 75.7071 1106.93 75.2004C1108.13 74.0004 1109.62 73.4004 1111.41 73.4004C1112.98 73.4004 1114.38 73.8137 1115.61 74.6404C1116.84 75.4404 1117.81 76.6404 1118.53 78.2404C1119.25 79.8137 1119.61 81.7337 1119.61 84.0004C1119.61 87.4137 1118.81 90.0404 1117.21 91.8804C1115.64 93.6937 1113.5 94.6004 1110.81 94.6004C1109.53 94.6004 1108.41 94.3337 1107.45 93.8004C1107.05 93.6137 1106.64 93.3471 1106.21 93.0004V100.8L1108.61 101.4V102H1097.41V101.4ZM1109.21 93.4004C1110.36 93.4004 1111.24 92.7337 1111.85 91.4004C1112.49 90.0671 1112.81 87.6004 1112.81 84.0004C1112.81 80.5604 1112.52 78.1737 1111.93 76.8404C1111.37 75.4804 1110.66 74.8004 1109.81 74.8004C1108.8 74.8004 1107.89 75.3337 1107.09 76.4004C1106.74 76.8537 1106.45 77.3871 1106.21 78.0004V91.8004C1106.58 92.1737 1106.88 92.4404 1107.09 92.6004C1107.81 93.1337 1108.52 93.4004 1109.21 93.4004Z" fill="#591619"/>
<path d="M1122.81 93.4004L1125.21 92.8004V75.2004L1122.81 74.6004V74.0004H1134.01V74.6004L1131.61 75.2004V82.0004H1133.61C1140.54 82.0004 1144.01 84.0004 1144.01 88.0004C1144.01 92.0004 1140.54 94.0004 1133.61 94.0004H1122.81V93.4004ZM1133.61 93.0004C1134.78 93.0004 1135.7 92.5871 1136.37 91.7604C1137.06 90.9071 1137.41 89.6537 1137.41 88.0004C1137.41 86.3471 1137.06 85.1071 1136.37 84.2804C1135.7 83.4271 1134.78 83.0004 1133.61 83.0004H1131.61V93.0004H1133.61Z" fill="#591619"/>
<path d="M1145 93.4004L1147 92.8004L1148.6 88.0004C1149.03 86.7204 1150.16 85.7871 1152 85.2004C1152.75 84.9871 1153.62 84.8537 1154.6 84.8004V84.6004C1153.38 84.5737 1152.18 84.3604 1151 83.9604C1148.6 83.1071 1147.4 81.6537 1147.4 79.6004C1147.4 77.9471 1148.22 76.6004 1149.84 75.5604C1151.5 74.5204 1154.15 74.0004 1157.8 74.0004H1168.4V74.6004L1166 75.2004V92.8004L1168.4 93.4004V94.0004H1157.2V93.4004L1159.6 92.8004V85.2004H1156.4L1154.6 90.8004C1154.31 91.6804 1153.74 92.4404 1152.88 93.0804C1152.06 93.6937 1151.03 94.0004 1149.8 94.0004H1145V93.4004ZM1159.6 84.2004V75.0004H1157.8C1156.66 75.0004 1155.74 75.4004 1155.04 76.2004C1154.35 76.9737 1154 78.1071 1154 79.6004C1154 81.0937 1154.35 82.2404 1155.04 83.0404C1155.74 83.8137 1156.66 84.2004 1157.8 84.2004H1159.6Z" fill="#591619"/>
<path d="M406.986 94.6004C404.613 94.6004 402.786 94.0937 401.506 93.0804C400.226 92.0671 399.586 90.7737 399.586 89.2004C399.586 88.1604 399.813 87.1337 400.266 86.1204C400.453 85.6404 400.693 85.2004 400.986 84.8004C402.079 84.5337 403.266 84.2937 404.546 84.0804C407.426 83.6004 409.973 83.3071 412.186 83.2004V82.0004C412.186 79.0404 411.826 77.0004 411.106 75.8804C410.386 74.7604 409.279 74.2004 407.786 74.2004C407.226 74.2004 406.746 74.2671 406.346 74.4004L405.786 74.6004V80.6004L405.266 80.7204C404.839 80.7737 404.479 80.8004 404.186 80.8004C403.279 80.8004 402.546 80.5337 401.986 80.0004C401.453 79.4404 401.186 78.7071 401.186 77.8004C401.186 76.5737 401.799 75.5337 403.026 74.6804C404.279 73.8271 406.133 73.4004 408.586 73.4004C410.666 73.4004 412.453 73.7737 413.946 74.5204C415.466 75.2404 416.613 76.2537 417.386 77.5604C418.186 78.8404 418.586 80.3204 418.586 82.0004V92.8004L420.986 93.4004V94.0004H417.386C415.786 94.0004 414.546 93.5071 413.666 92.5204C413.293 92.1204 412.999 91.6137 412.786 91.0004C412.413 91.6671 411.973 92.2671 411.466 92.8004C410.266 94.0004 408.773 94.6004 406.986 94.6004ZM408.586 93.2004C409.573 93.2004 410.466 92.6671 411.266 91.6004C411.559 91.2004 411.866 90.6671 412.186 90.0004V84.2004C410.959 84.2004 409.786 84.2671 408.666 84.4004C407.839 84.5071 407.279 84.5737 406.986 84.6004C406.853 84.8937 406.719 85.2937 406.586 85.8004C406.319 86.8137 406.186 87.8137 406.186 88.8004C406.186 90.2937 406.413 91.4004 406.866 92.1204C407.319 92.8404 407.893 93.2004 408.586 93.2004Z" fill="#591619"/>
<path d="M423.005 101.4L425.405 100.8V75.2004L423.005 74.6004V74.0004H426.605C428.178 74.0004 429.418 74.5071 430.325 75.5204C430.671 75.9204 430.965 76.4137 431.205 77.0004C431.551 76.3071 431.991 75.7071 432.525 75.2004C433.725 74.0004 435.218 73.4004 437.005 73.4004C438.578 73.4004 439.978 73.8137 441.205 74.6404C442.431 75.4404 443.405 76.6404 444.125 78.2404C444.845 79.8137 445.205 81.7337 445.205 84.0004C445.205 87.4137 444.405 90.0404 442.805 91.8804C441.231 93.6937 439.098 94.6004 436.405 94.6004C435.125 94.6004 434.005 94.3337 433.045 93.8004C432.645 93.6137 432.231 93.3471 431.805 93.0004V100.8L434.205 101.4V102H423.005V101.4ZM434.805 93.4004C435.951 93.4004 436.831 92.7337 437.445 91.4004C438.085 90.0671 438.405 87.6004 438.405 84.0004C438.405 80.5604 438.111 78.1737 437.525 76.8404C436.965 75.4804 436.258 74.8004 435.405 74.8004C434.391 74.8004 433.485 75.3337 432.685 76.4004C432.338 76.8537 432.045 77.3871 431.805 78.0004V91.8004C432.178 92.1737 432.471 92.4404 432.685 92.6004C433.405 93.1337 434.111 93.4004 434.805 93.4004Z" fill="#591619"/>
<path d="M452.205 93.4004L454.605 92.8004V75.0004H451.605C451.605 76.4671 451.165 77.9471 450.285 79.4404C449.938 80.0004 449.511 80.5204 449.005 81.0004H447.805V74.0004H467.805V81.0004H466.605C466.098 80.5471 465.658 80.0271 465.285 79.4404C464.431 78.0004 464.005 76.5204 464.005 75.0004H461.005V92.8004L463.405 93.4004V94.0004H452.205V93.4004Z" fill="#591619"/>
<path d="M470.197 82.0004V80.2004H486.197V82.0004H470.197Z" fill="#591619"/>
<path d="M489.186 94.0004V93.4004L491.586 92.8004V75.2004L489.186 74.6004V74.0004H512.786V74.6004L510.386 75.2004V92.8004L512.786 93.4004V94.0004H501.586V93.4004L503.986 92.8004V75.0004H497.986V92.8004L500.386 93.4004V94.0004H489.186Z" fill="#591619"/>
<path d="M515.583 101.4L517.983 100.8V75.2004L515.583 74.6004V74.0004H519.183C520.756 74.0004 521.996 74.5071 522.903 75.5204C523.249 75.9204 523.543 76.4137 523.783 77.0004C524.129 76.3071 524.569 75.7071 525.103 75.2004C526.303 74.0004 527.796 73.4004 529.583 73.4004C531.156 73.4004 532.556 73.8137 533.783 74.6404C535.009 75.4404 535.983 76.6404 536.703 78.2404C537.423 79.8137 537.783 81.7337 537.783 84.0004C537.783 87.4137 536.983 90.0404 535.383 91.8804C533.809 93.6937 531.676 94.6004 528.983 94.6004C527.703 94.6004 526.583 94.3337 525.623 93.8004C525.223 93.6137 524.809 93.3471 524.383 93.0004V100.8L526.783 101.4V102H515.583V101.4ZM527.383 93.4004C528.529 93.4004 529.409 92.7337 530.023 91.4004C530.663 90.0671 530.983 87.6004 530.983 84.0004C530.983 80.5604 530.689 78.1737 530.103 76.8404C529.543 75.4804 528.836 74.8004 527.983 74.8004C526.969 74.8004 526.063 75.3337 525.263 76.4004C524.916 76.8537 524.623 77.3871 524.383 78.0004V91.8004C524.756 92.1737 525.049 92.4404 525.263 92.6004C525.983 93.1337 526.689 93.4004 527.383 93.4004Z" fill="#591619"/>
<path d="M548.783 94.6004C546.409 94.6004 544.583 94.0937 543.303 93.0804C542.023 92.0671 541.383 90.7737 541.383 89.2004C541.383 88.1604 541.609 87.1337 542.063 86.1204C542.249 85.6404 542.489 85.2004 542.783 84.8004C543.876 84.5337 545.063 84.2937 546.343 84.0804C549.223 83.6004 551.769 83.3071 553.983 83.2004V82.0004C553.983 79.0404 553.623 77.0004 552.903 75.8804C552.183 74.7604 551.076 74.2004 549.583 74.2004C549.023 74.2004 548.543 74.2671 548.143 74.4004L547.583 74.6004V80.6004L547.063 80.7204C546.636 80.7737 546.276 80.8004 545.983 80.8004C545.076 80.8004 544.343 80.5337 543.783 80.0004C543.249 79.4404 542.983 78.7071 542.983 77.8004C542.983 76.5737 543.596 75.5337 544.823 74.6804C546.076 73.8271 547.929 73.4004 550.383 73.4004C552.463 73.4004 554.249 73.7737 555.743 74.5204C557.263 75.2404 558.409 76.2537 559.183 77.5604C559.983 78.8404 560.383 80.3204 560.383 82.0004V92.8004L562.783 93.4004V94.0004H559.183C557.583 94.0004 556.343 93.5071 555.463 92.5204C555.089 92.1204 554.796 91.6137 554.583 91.0004C554.209 91.6671 553.769 92.2671 553.263 92.8004C552.063 94.0004 550.569 94.6004 548.783 94.6004ZM550.383 93.2004C551.369 93.2004 552.263 92.6671 553.063 91.6004C553.356 91.2004 553.663 90.6671 553.983 90.0004V84.2004C552.756 84.2004 551.583 84.2671 550.463 84.4004C549.636 84.5071 549.076 84.5737 548.783 84.6004C548.649 84.8937 548.516 85.2937 548.383 85.8004C548.116 86.8137 547.983 87.8137 547.983 88.8004C547.983 90.2937 548.209 91.4004 548.663 92.1204C549.116 92.8404 549.689 93.2004 550.383 93.2004Z" fill="#591619"/>
<path d="M565.202 93.4004L567.602 92.8004V75.2004L565.202 74.6004V74.0004H576.402V74.6004L574.002 75.2004V83.0004H575.402C576.175 83.0004 576.842 82.7604 577.402 82.2804C577.962 81.7737 578.362 81.1471 578.602 80.4004L579.602 76.8004C580.242 74.6671 581.442 73.6004 583.202 73.6004C584.402 73.6004 585.335 73.9204 586.002 74.5604C586.668 75.2004 587.002 76.0804 587.002 77.2004C587.002 78.2137 586.722 79.0004 586.162 79.5604C585.628 80.1204 584.908 80.4004 584.002 80.4004C583.628 80.4004 583.255 80.3737 582.882 80.3204L582.402 80.2004V74.8004C581.602 75.0137 581.068 75.6804 580.802 76.8004L579.802 80.4004C579.535 81.3337 579.095 82.0804 578.482 82.6404C578.268 82.8537 577.975 83.0404 577.602 83.2004H578.802C580.375 83.2004 581.602 83.5204 582.482 84.1604C583.388 84.7737 584.028 85.5871 584.402 86.6004L586.402 92.8004L588.402 93.4004V94.0004H584.202C582.788 94.0004 581.642 93.6804 580.762 93.0404C579.908 92.4004 579.322 91.5871 579.002 90.6004L576.802 84.0004H574.002V92.8004L576.402 93.4004V94.0004H565.202V93.4004Z" fill="#591619"/>
<path d="M594.002 93.4004L596.402 92.8004V75.0004H593.402C593.402 76.4671 592.962 77.9471 592.082 79.4404C591.735 80.0004 591.308 80.5204 590.802 81.0004H589.602V74.0004H609.602V81.0004H608.402C607.895 80.5471 607.455 80.0271 607.082 79.4404C606.228 78.0004 605.802 76.5204 605.802 75.0004H602.802V92.8004L605.202 93.4004V94.0004H594.002V93.4004Z" fill="#591619"/>
<path d="M612.194 94.0004V93.4004L614.594 92.8004V75.2004L612.194 74.6004V74.0004H623.394V74.6004L620.994 75.2004V88.4004L627.394 77.4004V75.2004L624.994 74.6004V74.0004H636.194V74.6004L633.794 75.2004V92.8004L636.194 93.4004V94.0004H624.994V93.4004L627.394 92.8004V79.6004L620.994 90.6004V92.8004L623.394 93.4004V94.0004H612.194Z" fill="#591619"/>
<path d="M639.381 93.4004L641.781 92.8004V75.2004L639.381 74.6004V74.0004H650.581V74.6004L648.181 75.2004V83.0004H649.581C650.355 83.0004 651.021 82.7604 651.581 82.2804C652.141 81.7737 652.541 81.1471 652.781 80.4004L653.781 76.8004C654.421 74.6671 655.621 73.6004 657.381 73.6004C658.581 73.6004 659.515 73.9204 660.181 74.5604C660.848 75.2004 661.181 76.0804 661.181 77.2004C661.181 78.2137 660.901 79.0004 660.341 79.5604C659.808 80.1204 659.088 80.4004 658.181 80.4004C657.808 80.4004 657.435 80.3737 657.061 80.3204L656.581 80.2004V74.8004C655.781 75.0137 655.248 75.6804 654.981 76.8004L653.981 80.4004C653.715 81.3337 653.275 82.0804 652.661 82.6404C652.448 82.8537 652.155 83.0404 651.781 83.2004H652.981C654.555 83.2004 655.781 83.5204 656.661 84.1604C657.568 84.7737 658.208 85.5871 658.581 86.6004L660.581 92.8004L662.581 93.4004V94.0004H658.381C656.968 94.0004 655.821 93.6804 654.941 93.0404C654.088 92.4004 653.501 91.5871 653.181 90.6004L650.981 84.0004H648.181V92.8004L650.581 93.4004V94.0004H639.381V93.4004Z" fill="#591619"/>
<path d="M672.181 94.6004C669.808 94.6004 667.981 94.0937 666.701 93.0804C665.421 92.0671 664.781 90.7737 664.781 89.2004C664.781 88.1604 665.008 87.1337 665.461 86.1204C665.648 85.6404 665.888 85.2004 666.181 84.8004C667.275 84.5337 668.461 84.2937 669.741 84.0804C672.621 83.6004 675.168 83.3071 677.381 83.2004V82.0004C677.381 79.0404 677.021 77.0004 676.301 75.8804C675.581 74.7604 674.475 74.2004 672.981 74.2004C672.421 74.2004 671.941 74.2671 671.541 74.4004L670.981 74.6004V80.6004L670.461 80.7204C670.035 80.7737 669.675 80.8004 669.381 80.8004C668.475 80.8004 667.741 80.5337 667.181 80.0004C666.648 79.4404 666.381 78.7071 666.381 77.8004C666.381 76.5737 666.995 75.5337 668.221 74.6804C669.475 73.8271 671.328 73.4004 673.781 73.4004C675.861 73.4004 677.648 73.7737 679.141 74.5204C680.661 75.2404 681.808 76.2537 682.581 77.5604C683.381 78.8404 683.781 80.3204 683.781 82.0004V92.8004L686.181 93.4004V94.0004H682.581C680.981 94.0004 679.741 93.5071 678.861 92.5204C678.488 92.1204 678.195 91.6137 677.981 91.0004C677.608 91.6671 677.168 92.2671 676.661 92.8004C675.461 94.0004 673.968 94.6004 672.181 94.6004ZM673.781 93.2004C674.768 93.2004 675.661 92.6671 676.461 91.6004C676.755 91.2004 677.061 90.6671 677.381 90.0004V84.2004C676.155 84.2004 674.981 84.2671 673.861 84.4004C673.035 84.5071 672.475 84.5737 672.181 84.6004C672.048 84.8937 671.915 85.2937 671.781 85.8004C671.515 86.8137 671.381 87.8137 671.381 88.8004C671.381 90.2937 671.608 91.4004 672.061 92.1204C672.515 92.8404 673.088 93.2004 673.781 93.2004Z" fill="#591619"/>
</svg>
