<svg width="112" height="121" viewBox="0 0 112 121" fill="none" xmlns="http://www.w3.org/2000/svg">
<path d="M56 121C51.4237 121 47.5699 119.458 44.4387 116.374C41.3075 113.289 39.7419 109.493 39.7419 104.985L50.5806 69.397L25.2903 96.0882C22.6409 97.749 19.3892 98.5794 15.5355 98.5794C12.4043 98.5794 9.63441 97.9863 7.22581 96.8C4.8172 95.3765 3.01075 93.3598 1.80645 90.75C0.60215 87.9029 0 85.4118 0 83.2765C0 80.4294 0.722581 77.8196 2.16774 75.4471C3.85376 72.8373 6.14194 70.8206 9.03226 69.397L45.1613 60.5L9.03226 51.603C6.14194 50.1794 3.85376 48.2814 2.16774 45.9088C0.722581 43.299 0 40.5706 0 37.7235C0 32.7412 1.44516 28.9451 4.33548 26.3353C7.46667 23.7255 11.2 22.4206 15.5355 22.4206C19.3892 22.4206 22.6409 23.251 25.2903 24.9118L50.5806 51.603L39.7419 16.0147C39.7419 11.5069 41.3075 7.71079 44.4387 4.62647C47.5699 1.54216 51.4237 0 56 0C60.5763 0 64.4301 1.54216 67.5613 4.62647C70.6925 7.71079 72.2581 11.5069 72.2581 16.0147L61.4193 51.603L86.7097 24.9118C89.3591 23.251 92.6107 22.4206 96.4645 22.4206C99.5957 22.4206 102.366 23.1324 104.774 24.5559C107.183 25.7422 108.989 27.6402 110.194 30.25C111.398 33.0971 112 35.5882 112 37.7235C112 40.5706 111.157 43.299 109.471 45.9088C108.026 48.2814 105.858 50.1794 102.968 51.603L66.8387 60.5L102.968 69.397C105.858 70.8206 108.026 72.8373 109.471 75.4471C111.157 77.8196 112 80.4294 112 83.2765C112 88.2588 110.434 92.0549 107.303 94.6647C104.413 97.2745 100.8 98.5794 96.4645 98.5794C92.6107 98.5794 89.3591 97.749 86.7097 96.0882L61.4193 69.397L72.2581 104.985C72.2581 109.493 70.6925 113.289 67.5613 116.374C64.4301 119.458 60.5763 121 56 121Z" fill="black"/>
</svg>
