<svg width="586" height="150" viewBox="0 0 586 150" fill="none" xmlns="http://www.w3.org/2000/svg">
<path d="M120.131 35.52L122.051 35.04V14.56L120.131 14.08V13.6H137.251V19.36H136.291C135.886 19.04 135.534 18.6347 135.235 18.144C134.553 16.992 134.211 15.744 134.211 14.4H127.331V24.48H131.011C131.161 23.6693 131.438 22.912 131.843 22.208C132.014 21.888 132.217 21.5787 132.451 21.28H133.411V28.48H132.451C132.217 28.1813 132.014 27.872 131.843 27.552C131.438 26.848 131.161 26.0907 131.011 25.28H127.331V35.04L129.251 35.52V36H120.131V35.52ZM146.541 36.48C143.896 36.48 141.816 35.7333 140.301 34.24C138.808 32.7253 138.061 30.6453 138.061 28C138.061 25.3547 138.808 23.2853 140.301 21.792C141.816 20.2773 143.896 19.52 146.541 19.52C149.187 19.52 151.256 20.2773 152.749 21.792C154.264 23.2853 155.021 25.3547 155.021 28C155.021 30.6453 154.264 32.7253 152.749 34.24C151.256 35.7333 149.187 36.48 146.541 36.48ZM146.541 35.84C147.395 35.84 148.109 35.2427 148.685 34.048C149.283 32.8533 149.581 30.8373 149.581 28C149.581 25.1627 149.283 23.1467 148.685 21.952C148.109 20.7573 147.395 20.16 146.541 20.16C145.688 20.16 144.963 20.7573 144.365 21.952C143.789 23.1467 143.501 25.1627 143.501 28C143.501 30.8373 143.789 32.8533 144.365 34.048C144.963 35.2427 145.688 35.84 146.541 35.84ZM157.593 35.52L159.513 35.04V20.96L157.593 20.48V20H160.473C161.731 20 162.723 20.4053 163.449 21.216C163.726 21.536 163.961 21.9307 164.153 22.4C164.451 21.8453 164.803 21.3653 165.209 20.96C166.169 20 167.363 19.52 168.793 19.52C169.987 19.52 171.054 19.776 171.993 20.288C172.953 20.7787 173.699 21.4293 174.233 22.24C174.766 23.0507 175.033 23.904 175.033 24.8V35.04L176.953 35.52V36H172.793C170.873 36 169.913 35.04 169.913 33.12V24.8C169.913 23.456 169.667 22.432 169.177 21.728C168.707 21.0027 168.153 20.64 167.513 20.64C166.702 20.64 165.977 21.0667 165.337 21.92C165.059 22.2827 164.825 22.7093 164.633 23.2V35.04L166.553 35.52V36H157.593V35.52ZM187.194 36.48C185.786 36.48 184.559 36.224 183.514 35.712C182.49 35.2 181.7 34.496 181.146 33.6C180.591 32.704 180.314 31.6907 180.314 30.56V20.8H178.074V20H180.314V18.4C180.314 16.48 181.274 15.52 183.194 15.52H185.434V20H189.914V20.8H185.434V30.56C185.434 32.5227 185.636 33.8667 186.042 34.592C186.447 35.3173 187.044 35.68 187.834 35.68C188.602 35.68 189.274 35.3067 189.85 34.56C190.426 33.8133 190.714 32.8 190.714 31.52H191.514C191.514 33.0987 191.119 34.3253 190.33 35.2C189.54 36.0533 188.495 36.48 187.194 36.48ZM1.69375 85.52L3.61375 85.04V64.56L1.69375 64.08V63.6H10.6538C14.1951 63.6 16.7338 64.1867 18.2698 65.36C19.8058 66.512 20.5738 68.2187 20.5738 70.48C20.5738 72.7413 19.8058 74.4587 18.2698 75.632C16.7338 76.784 14.1951 77.36 10.6538 77.36H8.89375V85.04L10.8138 85.52V86H1.69375V85.52ZM10.6538 76.56C11.9978 76.56 13.0751 76.048 13.8858 75.024C14.7178 74 15.1338 72.4853 15.1338 70.48C15.1338 68.496 14.7178 66.992 13.8858 65.968C13.0751 64.9227 11.9978 64.4 10.6538 64.4H8.89375V76.56H10.6538ZM28.5825 86.48C26.6838 86.48 25.2225 86.0747 24.1985 85.264C23.1745 84.4533 22.6625 83.4187 22.6625 82.16C22.6625 81.328 22.8438 80.5067 23.2065 79.696C23.3558 79.312 23.5478 78.96 23.7825 78.64C24.6572 78.4267 25.6065 78.2347 26.6305 78.064C28.9345 77.68 30.9718 77.4453 32.7425 77.36V76.4C32.7425 74.032 32.4545 72.4 31.8785 71.504C31.3025 70.608 30.4172 70.16 29.2225 70.16C28.7745 70.16 28.3905 70.2133 28.0705 70.32L27.6225 70.48V75.28L27.2065 75.376C26.8652 75.4187 26.5772 75.44 26.3425 75.44C25.6172 75.44 25.0305 75.2267 24.5825 74.8C24.1558 74.352 23.9425 73.7653 23.9425 73.04C23.9425 72.0587 24.4332 71.2267 25.4145 70.544C26.4172 69.8613 27.8998 69.52 29.8625 69.52C31.5265 69.52 32.9558 69.8187 34.1505 70.416C35.3665 70.992 36.2838 71.8027 36.9025 72.848C37.5425 73.872 37.8625 75.056 37.8625 76.4V85.04L39.7825 85.52V86H36.9025C35.6225 86 34.6305 85.6053 33.9265 84.816C33.6278 84.496 33.3932 84.0907 33.2225 83.6C32.9238 84.1333 32.5718 84.6133 32.1665 85.04C31.2065 86 30.0118 86.48 28.5825 86.48ZM29.8625 85.36C30.6518 85.36 31.3665 84.9333 32.0065 84.08C32.2412 83.76 32.4865 83.3333 32.7425 82.8V78.16C31.7612 78.16 30.8225 78.2133 29.9265 78.32C29.2652 78.4053 28.8172 78.4587 28.5825 78.48C28.4758 78.7147 28.3692 79.0347 28.2625 79.44C28.0492 80.2507 27.9425 81.0507 27.9425 81.84C27.9425 83.0347 28.1238 83.92 28.4865 84.496C28.8492 85.072 29.3078 85.36 29.8625 85.36ZM49.2375 92.88C47.3388 92.88 45.7922 92.7093 44.5975 92.368C43.4028 92.0267 42.5388 91.5893 42.0055 91.056C41.4935 90.5227 41.2375 89.9573 41.2375 89.36C41.2375 88.6347 41.4508 88.048 41.8775 87.6C42.3255 87.1733 42.9122 86.96 43.6375 86.96C43.8082 86.96 44.1175 86.992 44.5655 87.056L44.9175 87.12V91.6C45.1735 91.6853 45.5788 91.792 46.1335 91.92C47.1148 92.1333 48.0428 92.24 48.9175 92.24C51.5202 92.24 53.4188 91.8667 54.6135 91.12C55.8295 90.3947 56.4375 89.488 56.4375 88.4C56.4375 87.0133 55.1575 86.32 52.5975 86.32H46.5175C44.9175 86.32 43.6908 85.9893 42.8375 85.328C41.9842 84.6667 41.5575 83.824 41.5575 82.8C41.5575 81.776 42.0588 80.8693 43.0615 80.08C43.4668 79.7813 43.9788 79.5147 44.5975 79.28C43.8082 78.7893 43.2322 78.2133 42.8695 77.552C42.5282 76.8693 42.3575 76.0587 42.3575 75.12C42.3575 73.5413 42.9548 72.272 44.1495 71.312C45.3442 70.3307 47.0935 69.84 49.3975 69.84C50.4002 69.84 51.3175 69.9467 52.1495 70.16C53.0028 70.352 53.6855 70.6187 54.1975 70.96C54.3682 70.5973 54.5922 70.2773 54.8695 70C55.5095 69.36 56.2988 69.04 57.2375 69.04C57.9628 69.04 58.5708 69.296 59.0615 69.808C59.5522 70.2987 59.7975 70.9493 59.7975 71.76C59.7975 72.3787 59.6268 72.88 59.2855 73.264C58.9655 73.648 58.5495 73.84 58.0375 73.84C57.8028 73.84 57.5362 73.8187 57.2375 73.776L56.9175 73.68V69.84C56.3628 69.84 55.8402 70.1067 55.3495 70.64C55.1575 70.832 54.9868 71.0987 54.8375 71.44C55.9042 72.3787 56.4375 73.6053 56.4375 75.12C56.4375 76.6987 55.8402 77.9787 54.6455 78.96C53.4508 79.92 51.7015 80.4 49.3975 80.4C47.8615 80.4 46.4748 80.1333 45.2375 79.6L44.5975 79.92C44.3842 80.048 44.2242 80.176 44.1175 80.304C44.0108 80.4107 43.9575 80.5493 43.9575 80.72C43.9575 81.0827 44.1388 81.36 44.5015 81.552C44.8855 81.744 45.5575 81.84 46.5175 81.84H52.5975C54.1975 81.84 55.4455 82.3093 56.3415 83.248C57.2588 84.1653 57.7175 85.456 57.7175 87.12C57.7175 88.8267 57.0028 90.2133 55.5735 91.28C54.1655 92.3467 52.0535 92.88 49.2375 92.88ZM49.3975 79.76C50.1015 79.76 50.6455 79.4187 51.0295 78.736C51.4348 78.0533 51.6375 76.848 51.6375 75.12C51.6375 73.392 51.4348 72.1867 51.0295 71.504C50.6455 70.8213 50.1015 70.48 49.3975 70.48C48.6935 70.48 48.1388 70.8213 47.7335 71.504C47.3495 72.1867 47.1575 73.392 47.1575 75.12C47.1575 76.848 47.3495 78.0533 47.7335 78.736C48.1388 79.4187 48.6935 79.76 49.3975 79.76ZM69.1075 86.48C66.3768 86.48 64.2542 85.7333 62.7395 84.24C61.2248 82.7253 60.4675 80.6453 60.4675 78C60.4675 76.272 60.7982 74.768 61.4595 73.488C62.1208 72.208 63.0382 71.2267 64.2115 70.544C65.4062 69.8613 66.7715 69.52 68.3075 69.52C69.8435 69.52 71.1875 69.808 72.3395 70.384C73.5128 70.96 74.4088 71.7387 75.0275 72.72C75.6675 73.68 75.9875 74.7467 75.9875 75.92C75.9875 76.4533 75.9342 76.912 75.8275 77.296L75.6675 77.84C74.7502 78.032 73.7582 78.192 72.6915 78.32C70.4515 78.64 68.1902 78.8 65.9075 78.8C65.9075 81.2747 66.2488 83.0453 66.9315 84.112C67.6142 85.1573 68.5528 85.68 69.7475 85.68C70.5795 85.68 71.3475 85.488 72.0515 85.104C72.7768 84.6987 73.3422 84.176 73.7475 83.536C74.1742 82.8747 74.3875 82.2027 74.3875 81.52H75.1875C75.1875 82.3733 74.9315 83.184 74.4195 83.952C73.9075 84.72 73.1928 85.3387 72.2755 85.808C71.3582 86.256 70.3022 86.48 69.1075 86.48ZM65.9075 78C67.2728 78 68.3822 77.9467 69.2355 77.84C69.5982 77.8187 69.9822 77.7653 70.3875 77.68C70.4088 77.5733 70.4622 77.3387 70.5475 76.976C70.6542 76.4427 70.7075 75.8773 70.7075 75.28C70.7075 73.5093 70.4728 72.2187 70.0035 71.408C69.5342 70.576 68.9688 70.16 68.3075 70.16C66.7075 70.16 65.9075 72.7733 65.9075 78ZM93.9025 86.48C92.6438 86.48 91.5238 86.16 90.5425 85.52C89.5612 84.8587 88.7825 83.8987 88.2065 82.64C87.6305 81.36 87.3425 79.8133 87.3425 78C87.3425 75.2693 87.9718 73.1787 89.2305 71.728C90.5105 70.256 92.2278 69.52 94.3825 69.52C95.4065 69.52 96.3025 69.7333 97.0705 70.16C97.3905 70.3093 97.7212 70.5227 98.0625 70.8V64.56L96.1425 64.08V63.6H100.303C102.223 63.6 103.183 64.56 103.183 66.48V85.04L105.103 85.52V86H102.222C100.943 86 99.9505 85.6053 99.2465 84.816C98.9478 84.496 98.7132 84.0907 98.5425 83.6C98.2652 84.1333 97.9132 84.6133 97.4865 85.04C96.5265 86 95.3318 86.48 93.9025 86.48ZM95.1825 85.36C95.9718 85.36 96.6865 84.9333 97.3265 84.08C97.5612 83.76 97.8065 83.3333 98.0625 82.8V71.76C97.8278 71.5253 97.5825 71.312 97.3265 71.12C96.7505 70.6933 96.1958 70.48 95.6625 70.48C94.7452 70.48 94.0305 71.0133 93.5185 72.08C93.0278 73.1467 92.7825 75.12 92.7825 78C92.7825 80.752 93.0065 82.672 93.4545 83.76C93.9238 84.8267 94.4998 85.36 95.1825 85.36ZM115.826 86.48C113.096 86.48 110.973 85.7333 109.458 84.24C107.944 82.7253 107.186 80.6453 107.186 78C107.186 76.272 107.517 74.768 108.178 73.488C108.84 72.208 109.757 71.2267 110.93 70.544C112.125 69.8613 113.49 69.52 115.026 69.52C116.562 69.52 117.906 69.808 119.058 70.384C120.232 70.96 121.128 71.7387 121.746 72.72C122.386 73.68 122.706 74.7467 122.706 75.92C122.706 76.4533 122.653 76.912 122.546 77.296L122.386 77.84C121.469 78.032 120.477 78.192 119.41 78.32C117.17 78.64 114.909 78.8 112.626 78.8C112.626 81.2747 112.968 83.0453 113.65 84.112C114.333 85.1573 115.272 85.68 116.466 85.68C117.298 85.68 118.066 85.488 118.77 85.104C119.496 84.6987 120.061 84.176 120.466 83.536C120.893 82.8747 121.106 82.2027 121.106 81.52H121.906C121.906 82.3733 121.65 83.184 121.138 83.952C120.626 84.72 119.912 85.3387 118.994 85.808C118.077 86.256 117.021 86.48 115.826 86.48ZM112.626 78C113.992 78 115.101 77.9467 115.954 77.84C116.317 77.8187 116.701 77.7653 117.106 77.68C117.128 77.5733 117.181 77.3387 117.266 76.976C117.373 76.4427 117.426 75.8773 117.426 75.28C117.426 73.5093 117.192 72.2187 116.722 71.408C116.253 70.576 115.688 70.16 115.026 70.16C113.426 70.16 112.626 72.7733 112.626 78ZM132.613 86.48C131.29 86.48 130.106 86.192 129.061 85.616C128.549 85.3387 128.133 85.04 127.812 84.72C127.471 85.1893 127.098 85.552 126.693 85.808C126.501 85.936 126.287 86.0533 126.053 86.16H125.253V80.72H126.533C126.81 81.616 127.215 82.448 127.749 83.216C128.879 84.8587 130.287 85.68 131.973 85.68C132.869 85.68 133.541 85.4667 133.989 85.04C134.458 84.592 134.693 83.952 134.693 83.12C134.693 82.416 134.373 81.8293 133.733 81.36C133.114 80.8693 132.133 80.272 130.789 79.568C129.637 78.992 128.698 78.48 127.973 78.032C127.269 77.5627 126.661 76.9867 126.149 76.304C125.658 75.6 125.413 74.7787 125.413 73.84C125.413 72.56 125.957 71.5253 127.045 70.736C128.154 69.9253 129.85 69.52 132.133 69.52C133.263 69.52 134.309 69.8187 135.269 70.416C135.738 70.6933 136.143 70.9813 136.485 71.28C136.762 70.896 137.135 70.5333 137.605 70.192C137.967 69.9787 138.181 69.8613 138.245 69.84H139.045V75.28H137.765C137.445 74.3627 137.05 73.5413 136.581 72.816C135.514 71.152 134.245 70.32 132.773 70.32C132.197 70.32 131.706 70.5333 131.301 70.96C130.895 71.3867 130.693 71.92 130.693 72.56C130.693 73.3707 131.034 74.0533 131.717 74.608C132.399 75.1413 133.434 75.76 134.821 76.464C135.951 77.04 136.847 77.552 137.509 78C138.191 78.4267 138.767 78.96 139.237 79.6C139.727 80.24 139.972 80.9867 139.972 81.84C139.972 84.9333 137.519 86.48 132.613 86.48ZM142.374 85.52L144.294 85.04V70.96L142.374 70.48V70H146.534C148.454 70 149.414 70.96 149.414 72.88V85.04L151.334 85.52V86H142.374V85.52ZM146.534 68.08C145.894 68.08 145.36 67.8667 144.934 67.44C144.507 67.0133 144.294 66.48 144.294 65.84C144.294 65.2 144.507 64.6667 144.934 64.24C145.36 63.8133 145.894 63.6 146.534 63.6C147.174 63.6 147.707 63.8133 148.134 64.24C148.56 64.6667 148.774 65.2 148.774 65.84C148.774 66.48 148.56 67.0133 148.134 67.44C147.707 67.8667 147.174 68.08 146.534 68.08ZM160.769 92.88C158.87 92.88 157.323 92.7093 156.129 92.368C154.934 92.0267 154.07 91.5893 153.537 91.056C153.025 90.5227 152.769 89.9573 152.769 89.36C152.769 88.6347 152.982 88.048 153.409 87.6C153.857 87.1733 154.443 86.96 155.169 86.96C155.339 86.96 155.649 86.992 156.097 87.056L156.449 87.12V91.6C156.705 91.6853 157.11 91.792 157.665 91.92C158.646 92.1333 159.574 92.24 160.449 92.24C163.051 92.24 164.95 91.8667 166.145 91.12C167.361 90.3947 167.969 89.488 167.969 88.4C167.969 87.0133 166.689 86.32 164.129 86.32H158.049C156.449 86.32 155.222 85.9893 154.369 85.328C153.515 84.6667 153.089 83.824 153.089 82.8C153.089 81.776 153.59 80.8693 154.593 80.08C154.998 79.7813 155.51 79.5147 156.129 79.28C155.339 78.7893 154.763 78.2133 154.401 77.552C154.059 76.8693 153.889 76.0587 153.889 75.12C153.889 73.5413 154.486 72.272 155.681 71.312C156.875 70.3307 158.625 69.84 160.929 69.84C161.931 69.84 162.849 69.9467 163.681 70.16C164.534 70.352 165.217 70.6187 165.729 70.96C165.899 70.5973 166.123 70.2773 166.401 70C167.041 69.36 167.83 69.04 168.769 69.04C169.494 69.04 170.102 69.296 170.593 69.808C171.083 70.2987 171.329 70.9493 171.329 71.76C171.329 72.3787 171.158 72.88 170.817 73.264C170.497 73.648 170.081 73.84 169.569 73.84C169.334 73.84 169.067 73.8187 168.769 73.776L168.449 73.68V69.84C167.894 69.84 167.371 70.1067 166.881 70.64C166.689 70.832 166.518 71.0987 166.369 71.44C167.435 72.3787 167.969 73.6053 167.969 75.12C167.969 76.6987 167.371 77.9787 166.177 78.96C164.982 79.92 163.233 80.4 160.929 80.4C159.393 80.4 158.006 80.1333 156.769 79.6L156.129 79.92C155.915 80.048 155.755 80.176 155.649 80.304C155.542 80.4107 155.489 80.5493 155.489 80.72C155.489 81.0827 155.67 81.36 156.033 81.552C156.417 81.744 157.089 81.84 158.049 81.84H164.129C165.729 81.84 166.977 82.3093 167.873 83.248C168.79 84.1653 169.249 85.456 169.249 87.12C169.249 88.8267 168.534 90.2133 167.105 91.28C165.697 92.3467 163.585 92.88 160.769 92.88ZM160.929 79.76C161.633 79.76 162.177 79.4187 162.561 78.736C162.966 78.0533 163.169 76.848 163.169 75.12C163.169 73.392 162.966 72.1867 162.561 71.504C162.177 70.8213 161.633 70.48 160.929 70.48C160.225 70.48 159.67 70.8213 159.265 71.504C158.881 72.1867 158.689 73.392 158.689 75.12C158.689 76.848 158.881 78.0533 159.265 78.736C159.67 79.4187 160.225 79.76 160.929 79.76ZM171.999 85.52L173.919 85.04V70.96L171.999 70.48V70H174.879C176.137 70 177.129 70.4053 177.855 71.216C178.132 71.536 178.367 71.9307 178.559 72.4C178.857 71.8453 179.209 71.3653 179.615 70.96C180.575 70 181.769 69.52 183.199 69.52C184.393 69.52 185.46 69.776 186.399 70.288C187.359 70.7787 188.105 71.4293 188.639 72.24C189.172 73.0507 189.439 73.904 189.439 74.8V85.04L191.359 85.52V86H187.199C185.279 86 184.319 85.04 184.319 83.12V74.8C184.319 73.456 184.073 72.432 183.583 71.728C183.113 71.0027 182.559 70.64 181.919 70.64C181.108 70.64 180.383 71.0667 179.743 71.92C179.465 72.2827 179.231 72.7093 179.039 73.2V85.04L180.959 85.52V86H171.999V85.52ZM75.6675 117.6V134.56L78.2275 135.52V136H72.1475V135.52L74.7075 134.56V114.56L72.7875 114.08V113.6H76.7875C77.8968 113.6 78.7715 113.835 79.4115 114.304C80.0728 114.752 80.6382 115.424 81.1075 116.32L88.0835 129.664L93.4275 116.32C93.7902 115.381 94.2808 114.699 94.8995 114.272C95.5182 113.824 96.4675 113.6 97.7475 113.6H101.108V114.08L99.1875 114.56V135.04L101.108 135.52V136H91.9875V135.52L93.9075 135.04V117.6L86.3875 136.32H85.4275L75.6675 117.6ZM112.639 136.48C109.908 136.48 107.785 135.733 106.271 134.24C104.756 132.725 103.999 130.645 103.999 128C103.999 126.272 104.329 124.768 104.991 123.488C105.652 122.208 106.569 121.227 107.743 120.544C108.937 119.861 110.303 119.52 111.839 119.52C113.375 119.52 114.719 119.808 115.871 120.384C117.044 120.96 117.94 121.739 118.559 122.72C119.199 123.68 119.519 124.747 119.519 125.92C119.519 126.453 119.465 126.912 119.359 127.296L119.199 127.84C118.281 128.032 117.289 128.192 116.223 128.32C113.983 128.64 111.721 128.8 109.439 128.8C109.439 131.275 109.78 133.045 110.463 134.112C111.145 135.157 112.084 135.68 113.279 135.68C114.111 135.68 114.879 135.488 115.583 135.104C116.308 134.699 116.873 134.176 117.279 133.536C117.705 132.875 117.919 132.203 117.919 131.52H118.719C118.719 132.373 118.463 133.184 117.951 133.952C117.439 134.72 116.724 135.339 115.807 135.808C114.889 136.256 113.833 136.48 112.639 136.48ZM109.439 128C110.804 128 111.913 127.947 112.767 127.84C113.129 127.819 113.513 127.765 113.919 127.68C113.94 127.573 113.993 127.339 114.079 126.976C114.185 126.443 114.239 125.877 114.239 125.28C114.239 123.509 114.004 122.219 113.535 121.408C113.065 120.576 112.5 120.16 111.839 120.16C110.239 120.16 109.439 122.773 109.439 128ZM121.905 135.52L123.825 135.04V120.96L121.905 120.48V120H124.785C126.044 120 127.036 120.405 127.761 121.216C128.038 121.536 128.273 121.931 128.465 122.4C128.764 121.845 129.116 121.365 129.521 120.96C130.481 120 131.676 119.52 133.105 119.52C134.3 119.52 135.366 119.776 136.305 120.288C137.265 120.779 138.012 121.429 138.545 122.24C139.078 123.051 139.345 123.904 139.345 124.8V135.04L141.265 135.52V136H137.105C135.185 136 134.225 135.04 134.225 133.12V124.8C134.225 123.456 133.98 122.432 133.489 121.728C133.02 121.003 132.465 120.64 131.825 120.64C131.014 120.64 130.289 121.067 129.649 121.92C129.372 122.283 129.137 122.709 128.945 123.2V135.04L130.865 135.52V136H121.905V135.52ZM151.506 136.48C150.098 136.48 148.872 136.224 147.826 135.712C146.802 135.2 146.013 134.496 145.458 133.6C144.904 132.704 144.626 131.691 144.626 130.56V120.8H142.386V120H144.626V118.4C144.626 116.48 145.586 115.52 147.506 115.52H149.746V120H154.226V120.8H149.746V130.56C149.746 132.523 149.949 133.867 150.354 134.592C150.76 135.317 151.357 135.68 152.146 135.68C152.914 135.68 153.586 135.307 154.162 134.56C154.738 133.813 155.026 132.8 155.026 131.52H155.826C155.826 133.099 155.432 134.325 154.642 135.2C153.853 136.053 152.808 136.48 151.506 136.48ZM166.073 136.48C163.427 136.48 161.347 135.733 159.833 134.24C158.339 132.725 157.593 130.645 157.593 128C157.593 125.355 158.339 123.285 159.833 121.792C161.347 120.277 163.427 119.52 166.073 119.52C168.718 119.52 170.787 120.277 172.281 121.792C173.795 123.285 174.553 125.355 174.553 128C174.553 130.645 173.795 132.725 172.281 134.24C170.787 135.733 168.718 136.48 166.073 136.48ZM166.073 135.84C166.926 135.84 167.641 135.243 168.217 134.048C168.814 132.853 169.113 130.837 169.113 128C169.113 125.163 168.814 123.147 168.217 121.952C167.641 120.757 166.926 120.16 166.073 120.16C165.219 120.16 164.494 120.757 163.897 121.952C163.321 123.147 163.033 125.163 163.033 128C163.033 130.837 163.321 132.853 163.897 134.048C164.494 135.243 165.219 135.84 166.073 135.84ZM177.124 135.52L179.044 135.04V120.96L177.124 120.48V120H180.004C181.262 120 182.254 120.405 182.98 121.216C183.257 121.536 183.492 121.931 183.684 122.4C184.004 121.931 184.398 121.504 184.868 121.12C185.934 120.267 187.129 119.84 188.452 119.84C189.582 119.84 190.425 120.107 190.98 120.64C191.556 121.152 191.844 121.899 191.844 122.88C191.844 123.605 191.62 124.192 191.172 124.64C190.745 125.067 190.169 125.28 189.444 125.28C189.145 125.28 188.846 125.259 188.548 125.216L188.164 125.12V120.64C187.076 120.64 186.084 121.067 185.188 121.92C184.761 122.347 184.42 122.773 184.164 123.2V135.04L186.084 135.52V136H177.124V135.52Z" fill="white"/>
<path d="M252.92 36.48C250.957 36.48 249.475 36.1387 248.472 35.456C247.491 34.7733 247 33.9413 247 32.96C247 32.2347 247.213 31.6587 247.64 31.232C248.088 30.784 248.675 30.56 249.4 30.56C249.571 30.56 249.741 30.5813 249.912 30.624C250.083 30.6453 250.2 30.656 250.264 30.656L250.68 30.72V35.52C250.829 35.6053 250.979 35.6587 251.128 35.68C251.491 35.7867 251.875 35.84 252.28 35.84C254.84 35.84 256.12 33.76 256.12 29.6V14.56L254.2 14.08V13.6H263.32V14.08L261.4 14.56V29.6C261.4 31.8187 260.707 33.5253 259.32 34.72C257.933 35.8933 255.8 36.48 252.92 36.48ZM276.434 36.48C274.343 36.48 272.508 36.032 270.93 35.136C269.372 34.2187 268.167 32.8853 267.314 31.136C266.46 29.3867 266.034 27.2747 266.034 24.8C266.034 22.3253 266.46 20.2133 267.314 18.464C268.167 16.7147 269.372 15.392 270.93 14.496C272.508 13.5787 274.343 13.12 276.434 13.12C278.524 13.12 280.348 13.5787 281.906 14.496C283.484 15.392 284.7 16.7147 285.554 18.464C286.407 20.2133 286.834 22.3253 286.834 24.8C286.834 27.2747 286.407 29.3867 285.554 31.136C284.7 32.8853 283.484 34.2187 281.906 35.136C280.348 36.032 278.524 36.48 276.434 36.48ZM276.434 35.84C277.266 35.84 278.034 35.488 278.738 34.784C279.463 34.08 280.06 32.9067 280.53 31.264C280.999 29.6213 281.234 27.4667 281.234 24.8C281.234 22.1333 280.999 19.9787 280.53 18.336C280.06 16.6933 279.463 15.52 278.738 14.816C278.034 14.112 277.266 13.76 276.434 13.76C275.602 13.76 274.823 14.112 274.098 14.816C273.394 15.52 272.807 16.6933 272.338 18.336C271.868 19.9787 271.634 22.1333 271.634 24.8C271.634 27.4667 271.868 29.6213 272.338 31.264C272.807 32.9067 273.394 34.08 274.098 34.784C274.823 35.488 275.602 35.84 276.434 35.84ZM288.616 14.56L287.016 14.08V13.6H290.856C291.966 13.6 292.872 13.856 293.576 14.368C294.28 14.8587 294.814 15.5093 295.176 16.32L300.84 29.216L306.056 15.04L303.656 14.08V13.6H309.576V14.08L307.016 15.04L299.176 36.32H298.216L288.616 14.56ZM305.11 35.52L307.67 34.56L316.47 13.28H317.43L326.55 35.04L328.15 35.52V36H324.31C323.201 36 322.294 35.7547 321.59 35.264C320.886 34.752 320.363 34.0907 320.022 33.28L318.39 29.44H310.742L308.63 34.56L311.03 35.52V36H305.11V35.52ZM311.062 28.64H318.07L314.55 20.224L311.062 28.64ZM331.98 19.04V34.56L334.54 35.52V36H328.46V35.52L331.02 34.56V14.72L328.78 14.08V13.6H332.14C333.271 13.6 334.156 13.8027 334.796 14.208C335.436 14.6133 336.044 15.1573 336.62 15.84L346.86 27.84V15.04L344.3 14.08V13.6H350.38V14.08L347.82 15.04V36.48H346.86L331.98 19.04ZM355.355 19.04V34.56L357.915 35.52V36H351.835V35.52L354.395 34.56V14.72L352.155 14.08V13.6H355.515C356.646 13.6 357.531 13.8027 358.171 14.208C358.811 14.6133 359.419 15.1573 359.995 15.84L370.235 27.84V15.04L367.675 14.08V13.6H373.755V14.08L371.195 15.04V36.48H370.235L355.355 19.04ZM380.803 35.52L382.723 35.04V27.68L376.163 14.56L374.562 14.08V13.6H378.562C379.672 13.6 380.557 13.8347 381.219 14.304C381.901 14.7733 382.456 15.4453 382.883 16.32L387.619 25.76L392.483 15.04L390.083 14.08V13.6H396.163V14.08L393.603 15.04L388.003 27.36V35.04L389.923 35.52V36H380.803V35.52ZM406.413 35.52L408.333 35.04V14.56L406.413 14.08V13.6H415.533V14.08L413.613 14.56V35.2H420.493C420.493 33.856 420.834 32.608 421.517 31.456C421.815 30.9653 422.167 30.56 422.573 30.24H423.533V36H406.413V35.52ZM425.944 35.52L427.864 35.04V14.56L425.944 14.08V13.6H443.064V19.36H442.104C441.698 19.04 441.346 18.6347 441.048 18.144C440.365 16.992 440.024 15.744 440.024 14.4H433.144V24.48H436.824C436.973 23.6693 437.25 22.912 437.656 22.208C437.826 21.888 438.029 21.5787 438.264 21.28H439.224V28.48H438.264C438.029 28.1813 437.826 27.872 437.656 27.552C437.25 26.848 436.973 26.0907 436.824 25.28H433.144V35.2H440.664C440.664 33.856 441.005 32.608 441.688 31.456C441.986 30.9653 442.338 30.56 442.744 30.24H443.704V36H425.944V35.52ZM449.449 17.6V34.56L452.009 35.52V36H445.929V35.52L448.489 34.56V14.56L446.569 14.08V13.6H450.569C451.678 13.6 452.553 13.8347 453.193 14.304C453.854 14.752 454.419 15.424 454.889 16.32L461.865 29.664L467.209 16.32C467.571 15.3813 468.062 14.6987 468.681 14.272C469.299 13.824 470.249 13.6 471.529 13.6H474.889V14.08L472.969 14.56V35.04L474.889 35.52V36H465.769V35.52L467.689 35.04V17.6L460.169 36.32H459.209L449.449 17.6ZM488.34 36.48C486.249 36.48 484.415 36.032 482.836 35.136C481.279 34.2187 480.073 32.8853 479.22 31.136C478.367 29.3867 477.94 27.2747 477.94 24.8C477.94 22.3253 478.367 20.2133 479.22 18.464C480.073 16.7147 481.279 15.392 482.836 14.496C484.415 13.5787 486.249 13.12 488.34 13.12C490.431 13.12 492.255 13.5787 493.812 14.496C495.391 15.392 496.607 16.7147 497.46 18.464C498.313 20.2133 498.74 22.3253 498.74 24.8C498.74 27.2747 498.313 29.3867 497.46 31.136C496.607 32.8853 495.391 34.2187 493.812 35.136C492.255 36.032 490.431 36.48 488.34 36.48ZM488.34 35.84C489.172 35.84 489.94 35.488 490.644 34.784C491.369 34.08 491.967 32.9067 492.436 31.264C492.905 29.6213 493.14 27.4667 493.14 24.8C493.14 22.1333 492.905 19.9787 492.436 18.336C491.967 16.6933 491.369 15.52 490.644 14.816C489.94 14.112 489.172 13.76 488.34 13.76C487.508 13.76 486.729 14.112 486.004 14.816C485.3 15.52 484.713 16.6933 484.244 18.336C483.775 19.9787 483.54 22.1333 483.54 24.8C483.54 27.4667 483.775 29.6213 484.244 31.264C484.713 32.9067 485.3 34.08 486.004 34.784C486.729 35.488 487.508 35.84 488.34 35.84ZM504.668 19.04V34.56L507.228 35.52V36H501.148V35.52L503.708 34.56V14.72L501.468 14.08V13.6H504.828C505.958 13.6 506.844 13.8027 507.484 14.208C508.124 14.6133 508.732 15.1573 509.308 15.84L519.548 27.84V15.04L516.988 14.08V13.6H523.068V14.08L520.508 15.04V36.48H519.548L504.668 19.04ZM522.266 35.52L524.826 34.56L533.626 13.28H534.586L543.706 35.04L545.306 35.52V36H541.466C540.357 36 539.45 35.7547 538.746 35.264C538.042 34.752 537.52 34.0907 537.178 33.28L535.546 29.44H527.898L525.786 34.56L528.186 35.52V36H522.266V35.52ZM528.218 28.64H535.226L531.706 20.224L528.218 28.64ZM546.256 35.52L548.176 35.04V14.56L546.256 14.08V13.6H554.416C558.235 13.6 561.158 14.5813 563.184 16.544C565.232 18.5067 566.256 21.2587 566.256 24.8C566.256 28.3413 565.232 31.0933 563.184 33.056C561.158 35.0187 558.235 36 554.416 36H546.256V35.52ZM554.416 35.2C556.4 35.2 557.936 34.4 559.024 32.8C560.112 31.1787 560.656 28.512 560.656 24.8C560.656 21.088 560.112 18.432 559.024 16.832C557.936 15.2107 556.4 14.4 554.416 14.4H553.456V35.2H554.416ZM248.6 85.52L250.52 85.04V64.56L248.6 64.08V63.6H256.76C260.579 63.6 263.501 64.5813 265.528 66.544C267.576 68.5067 268.6 71.2587 268.6 74.8C268.6 78.3413 267.576 81.0933 265.528 83.056C263.501 85.0187 260.579 86 256.76 86H248.6V85.52ZM256.76 85.2C258.744 85.2 260.28 84.4 261.368 82.8C262.456 81.1787 263 78.512 263 74.8C263 71.088 262.456 68.432 261.368 66.832C260.28 65.2107 258.744 64.4 256.76 64.4H255.8V85.2H256.76ZM268.266 85.52L270.826 84.56L279.626 63.28H280.586L289.706 85.04L291.306 85.52V86H287.466C286.357 86 285.45 85.7547 284.746 85.264C284.042 84.752 283.52 84.0907 283.178 83.28L281.546 79.44H273.898L271.786 84.56L274.186 85.52V86H268.266V85.52ZM274.218 78.64H281.226L277.706 70.224L274.218 78.64ZM292.256 85.52L294.176 85.04V64.56L292.256 64.08V63.6H300.736C304.363 63.6 306.976 64.1547 308.576 65.264C310.176 66.352 310.976 67.8773 310.976 69.84C310.976 71.1627 310.624 72.24 309.92 73.072C309.216 73.8827 308.31 74.4907 307.2 74.896C306.027 75.344 304.779 75.5787 303.456 75.6V75.76C304.246 75.8027 304.939 75.92 305.536 76.112C307.03 76.5813 308.043 77.424 308.576 78.64L311.456 85.04L313.056 85.52V86H308.576C306.827 86 305.547 85.0933 304.736 83.28L301.536 76.08H299.456V85.04L301.696 85.52V86H292.256V85.52ZM300.736 75.28C302.23 75.28 303.403 74.8107 304.256 73.872C305.11 72.9333 305.536 71.5893 305.536 69.84C305.536 68.0907 305.11 66.7467 304.256 65.808C303.403 64.8693 302.23 64.4 300.736 64.4H299.456V75.28H300.736ZM314.663 86V85.52L316.583 85.04V64.56L314.663 64.08V63.6H323.783V64.08L321.863 64.56V85.04L323.783 85.52V86H314.663ZM323.766 85.52L326.326 84.56L335.126 63.28H336.086L345.206 85.04L346.806 85.52V86H342.966C341.857 86 340.95 85.7547 340.246 85.264C339.542 84.752 339.02 84.0907 338.678 83.28L337.046 79.44H329.398L327.286 84.56L329.686 85.52V86H323.766V85.52ZM329.718 78.64H336.726L333.206 70.224L329.718 78.64ZM364.565 86.48C363.05 86.48 361.632 86.1387 360.309 85.456C359.712 85.1573 359.21 84.8053 358.805 84.4C358.506 84.8907 358.133 85.328 357.685 85.712C357.301 85.9893 357.088 86.1387 357.045 86.16H356.245V80.08H357.525C357.845 81.1253 358.293 82.064 358.869 82.896C360.17 84.752 361.856 85.68 363.925 85.68C365.141 85.68 366.112 85.3173 366.837 84.592C367.562 83.8667 367.925 82.896 367.925 81.68C367.925 80.976 367.712 80.3467 367.285 79.792C366.88 79.2373 366.368 78.7467 365.749 78.32C365.13 77.8933 364.266 77.36 363.157 76.72C361.749 75.9307 360.608 75.216 359.733 74.576C358.858 73.936 358.112 73.136 357.493 72.176C356.874 71.1947 356.565 70.0427 356.565 68.72C356.565 67.6747 356.853 66.736 357.429 65.904C358.026 65.0507 358.912 64.3787 360.085 63.888C361.258 63.376 362.698 63.12 364.405 63.12C365.642 63.12 366.88 63.472 368.117 64.176C368.586 64.432 369.056 64.7733 369.525 65.2C369.888 64.6453 370.261 64.208 370.645 63.888C371.029 63.6107 371.242 63.4613 371.285 63.44H372.085V69.52H370.805C370.528 68.496 370.112 67.568 369.557 66.736C369.045 65.9253 368.405 65.2533 367.637 64.72C366.89 64.1867 366.026 63.92 365.045 63.92C364.213 63.92 363.498 64.2507 362.901 64.912C362.304 65.5733 362.005 66.416 362.005 67.44C362.005 68.2293 362.229 68.944 362.677 69.584C363.146 70.2027 363.712 70.7467 364.373 71.216C365.056 71.6853 365.973 72.2507 367.125 72.912C368.469 73.68 369.557 74.3627 370.389 74.96C371.221 75.5573 371.925 76.304 372.501 77.2C373.077 78.0747 373.365 79.088 373.365 80.24C373.365 81.392 373.034 82.448 372.373 83.408C371.712 84.3467 370.72 85.0933 369.397 85.648C368.074 86.2027 366.464 86.48 364.565 86.48ZM375.756 85.52L377.676 85.04V64.56L375.756 64.08V63.6H384.876V64.08L382.956 64.56V74.608L390.796 65.04L388.396 64.08V63.6H394.476V64.08L391.916 65.04L386.316 71.92L394.956 85.04L396.556 85.52V86H392.076C391.116 86 390.295 85.7653 389.612 85.296C388.951 84.8053 388.332 84.1333 387.756 83.28L382.956 75.92V85.04L384.876 85.52V86H375.756V85.52ZM397.85 85.52L399.77 85.04V64.56L397.85 64.08V63.6H406.33C409.957 63.6 412.57 64.1547 414.17 65.264C415.77 66.352 416.57 67.8773 416.57 69.84C416.57 71.1627 416.218 72.24 415.514 73.072C414.81 73.8827 413.903 74.4907 412.794 74.896C411.621 75.344 410.373 75.5787 409.05 75.6V75.76C409.839 75.8027 410.533 75.92 411.13 76.112C412.623 76.5813 413.637 77.424 414.17 78.64L417.05 85.04L418.65 85.52V86H414.17C412.421 86 411.141 85.0933 410.33 83.28L407.13 76.08H405.05V85.04L407.29 85.52V86H397.85V85.52ZM406.33 75.28C407.823 75.28 408.997 74.8107 409.85 73.872C410.703 72.9333 411.13 71.5893 411.13 69.84C411.13 68.0907 410.703 66.7467 409.85 65.808C408.997 64.8693 407.823 64.4 406.33 64.4H405.05V75.28H406.33ZM423.928 85.52L425.848 85.04V77.68L419.288 64.56L417.688 64.08V63.6H421.688C422.797 63.6 423.682 63.8347 424.344 64.304C425.026 64.7733 425.581 65.4453 426.008 66.32L430.744 75.76L435.608 65.04L433.208 64.08V63.6H439.288V64.08L436.728 65.04L431.128 77.36V85.04L433.048 85.52V86H423.928V85.52ZM443.449 69.04V84.56L446.009 85.52V86H439.929V85.52L442.489 84.56V64.72L440.249 64.08V63.6H443.609C444.739 63.6 445.625 63.8027 446.265 64.208C446.905 64.6133 447.513 65.1573 448.089 65.84L458.329 77.84V65.04L455.769 64.08V63.6H461.849V64.08L459.289 65.04V86.48H458.329L443.449 69.04ZM466.824 69.04V84.56L469.384 85.52V86H463.304V85.52L465.864 84.56V64.72L463.624 64.08V63.6H466.984C468.114 63.6 469 63.8027 469.64 64.208C470.28 64.6133 470.888 65.1573 471.464 65.84L481.704 77.84V65.04L479.144 64.08V63.6H485.224V64.08L482.664 65.04V86.48H481.704L466.824 69.04ZM487.319 86V85.52L489.239 85.04V64.56L487.319 64.08V63.6H496.439V64.08L494.519 64.56V85.04L496.439 85.52V86H487.319ZM499.319 85.52L501.239 85.04V64.56L499.319 64.08V63.6H508.439V64.08L506.519 64.56V74.608L514.359 65.04L511.959 64.08V63.6H518.039V64.08L515.479 65.04L509.879 71.92L518.519 85.04L520.119 85.52V86H515.639C514.679 86 513.857 85.7653 513.175 85.296C512.513 84.8053 511.895 84.1333 511.319 83.28L506.519 75.92V85.04L508.439 85.52V86H499.319V85.52ZM530.684 86.48C528.593 86.48 526.758 86.032 525.18 85.136C523.622 84.2187 522.417 82.8853 521.564 81.136C520.71 79.3867 520.284 77.2747 520.284 74.8C520.284 72.3253 520.71 70.2133 521.564 68.464C522.417 66.7147 523.622 65.392 525.18 64.496C526.758 63.5787 528.593 63.12 530.684 63.12C532.774 63.12 534.598 63.5787 536.156 64.496C537.734 65.392 538.95 66.7147 539.804 68.464C540.657 70.2133 541.084 72.3253 541.084 74.8C541.084 77.2747 540.657 79.3867 539.804 81.136C538.95 82.8853 537.734 84.2187 536.156 85.136C534.598 86.032 532.774 86.48 530.684 86.48ZM530.684 85.84C531.516 85.84 532.284 85.488 532.988 84.784C533.713 84.08 534.31 82.9067 534.78 81.264C535.249 79.6213 535.484 77.4667 535.484 74.8C535.484 72.1333 535.249 69.9787 534.78 68.336C534.31 66.6933 533.713 65.52 532.988 64.816C532.284 64.112 531.516 63.76 530.684 63.76C529.852 63.76 529.073 64.112 528.348 64.816C527.644 65.52 527.057 66.6933 526.588 68.336C526.118 69.9787 525.884 72.1333 525.884 74.8C525.884 77.4667 526.118 79.6213 526.588 81.264C527.057 82.9067 527.644 84.08 528.348 84.784C529.073 85.488 529.852 85.84 530.684 85.84ZM542.866 64.56L541.266 64.08V63.6H545.106C546.216 63.6 547.122 63.856 547.826 64.368C548.53 64.8587 549.064 65.5093 549.426 66.32L555.09 79.216L560.306 65.04L557.906 64.08V63.6H563.826V64.08L561.266 65.04L553.426 86.32H552.466L542.866 64.56ZM559.36 85.52L561.92 84.56L570.72 63.28H571.68L580.8 85.04L582.4 85.52V86H578.56C577.451 86 576.544 85.7547 575.84 85.264C575.136 84.752 574.613 84.0907 574.272 83.28L572.64 79.44H564.992L562.88 84.56L565.28 85.52V86H559.36V85.52ZM565.312 78.64H572.32L568.8 70.224L565.312 78.64ZM253.24 135.52L255.16 135.04V127.68L248.6 114.56L247 114.08V113.6H251C252.109 113.6 252.995 113.835 253.656 114.304C254.339 114.773 254.893 115.445 255.32 116.32L260.056 125.76L264.92 115.04L262.52 114.08V113.6H268.6V114.08L266.04 115.04L260.44 127.36V135.04L262.36 135.52V136H253.24V135.52ZM264.766 135.52L267.326 134.56L276.126 113.28H277.086L286.206 135.04L287.806 135.52V136H283.966C282.857 136 281.95 135.755 281.246 135.264C280.542 134.752 280.02 134.091 279.678 133.28L278.046 129.44H270.398L268.286 134.56L270.686 135.52V136H264.766V135.52ZM270.718 128.64H277.726L274.206 120.224L270.718 128.64ZM288.756 135.52L290.676 135.04V114.56L288.756 114.08V113.6H297.236C300.863 113.6 303.476 114.155 305.076 115.264C306.676 116.352 307.476 117.877 307.476 119.84C307.476 121.163 307.124 122.24 306.42 123.072C305.716 123.883 304.81 124.491 303.7 124.896C302.527 125.344 301.279 125.579 299.956 125.6V125.76C300.746 125.803 301.439 125.92 302.036 126.112C303.53 126.581 304.543 127.424 305.076 128.64L307.956 135.04L309.556 135.52V136H305.076C303.327 136 302.047 135.093 301.236 133.28L298.036 126.08H295.956V135.04L298.196 135.52V136H288.756V135.52ZM297.236 125.28C298.73 125.28 299.903 124.811 300.756 123.872C301.61 122.933 302.036 121.589 302.036 119.84C302.036 118.091 301.61 116.747 300.756 115.808C299.903 114.869 298.73 114.4 297.236 114.4H295.956V125.28H297.236ZM321.09 136.48C318.999 136.48 317.165 136.032 315.586 135.136C314.029 134.219 312.823 132.885 311.97 131.136C311.117 129.387 310.69 127.275 310.69 124.8C310.69 122.325 311.117 120.213 311.97 118.464C312.823 116.715 314.029 115.392 315.586 114.496C317.165 113.579 318.999 113.12 321.09 113.12C323.181 113.12 325.005 113.579 326.562 114.496C328.141 115.392 329.357 116.715 330.21 118.464C331.063 120.213 331.49 122.325 331.49 124.8C331.49 127.275 331.063 129.387 330.21 131.136C329.357 132.885 328.141 134.219 326.562 135.136C325.005 136.032 323.181 136.48 321.09 136.48ZM321.09 135.84C321.922 135.84 322.69 135.488 323.394 134.784C324.119 134.08 324.717 132.907 325.186 131.264C325.655 129.621 325.89 127.467 325.89 124.8C325.89 122.133 325.655 119.979 325.186 118.336C324.717 116.693 324.119 115.52 323.394 114.816C322.69 114.112 321.922 113.76 321.09 113.76C320.258 113.76 319.479 114.112 318.754 114.816C318.05 115.52 317.463 116.693 316.994 118.336C316.525 119.979 316.29 122.133 316.29 124.8C316.29 127.467 316.525 129.621 316.994 131.264C317.463 132.907 318.05 134.08 318.754 134.784C319.479 135.488 320.258 135.84 321.09 135.84ZM342.378 136.48C340.863 136.48 339.444 136.139 338.122 135.456C337.524 135.157 337.023 134.805 336.618 134.4C336.319 134.891 335.946 135.328 335.498 135.712C335.114 135.989 334.9 136.139 334.858 136.16H334.058V130.08H335.338C335.658 131.125 336.106 132.064 336.682 132.896C337.983 134.752 339.668 135.68 341.738 135.68C342.954 135.68 343.924 135.317 344.65 134.592C345.375 133.867 345.738 132.896 345.738 131.68C345.738 130.976 345.524 130.347 345.098 129.792C344.692 129.237 344.18 128.747 343.562 128.32C342.943 127.893 342.079 127.36 340.97 126.72C339.562 125.931 338.42 125.216 337.546 124.576C336.671 123.936 335.924 123.136 335.306 122.176C334.687 121.195 334.378 120.043 334.378 118.72C334.378 117.675 334.666 116.736 335.242 115.904C335.839 115.051 336.724 114.379 337.898 113.888C339.071 113.376 340.511 113.12 342.218 113.12C343.455 113.12 344.692 113.472 345.93 114.176C346.399 114.432 346.868 114.773 347.338 115.2C347.7 114.645 348.074 114.208 348.458 113.888C348.842 113.611 349.055 113.461 349.097 113.44H349.898V119.52H348.618C348.34 118.496 347.924 117.568 347.37 116.736C346.858 115.925 346.218 115.253 345.45 114.72C344.703 114.187 343.839 113.92 342.858 113.92C342.026 113.92 341.311 114.251 340.714 114.912C340.116 115.573 339.818 116.416 339.818 117.44C339.818 118.229 340.042 118.944 340.49 119.584C340.959 120.203 341.524 120.747 342.186 121.216C342.868 121.685 343.786 122.251 344.938 122.912C346.282 123.68 347.37 124.363 348.202 124.96C349.034 125.557 349.738 126.304 350.314 127.2C350.89 128.075 351.178 129.088 351.178 130.24C351.178 131.392 350.847 132.448 350.186 133.408C349.524 134.347 348.532 135.093 347.21 135.648C345.887 136.203 344.276 136.48 342.378 136.48ZM353.569 135.52L355.489 135.04V114.56L353.569 114.08V113.6H362.689V114.08L360.769 114.56V135.2H367.649C367.649 133.856 367.99 132.608 368.673 131.456C368.971 130.965 369.323 130.56 369.729 130.24H370.689V136H353.569V135.52ZM370.86 135.52L373.42 134.56L382.22 113.28H383.18L392.3 135.04L393.9 135.52V136H390.06C388.951 136 388.044 135.755 387.34 135.264C386.636 134.752 386.113 134.091 385.772 133.28L384.14 129.44H376.492L374.38 134.56L376.78 135.52V136H370.86V135.52ZM376.812 128.64H383.82L380.3 120.224L376.812 128.64ZM392.116 114.56L390.516 114.08V113.6H394.356C395.466 113.6 396.372 113.856 397.076 114.368C397.78 114.859 398.314 115.509 398.676 116.32L404.34 129.216L409.556 115.04L407.156 114.08V113.6H413.076V114.08L410.516 115.04L402.676 136.32H401.716L392.116 114.56ZM430.846 136.48C429.332 136.48 427.913 136.139 426.59 135.456C425.993 135.157 425.492 134.805 425.086 134.4C424.788 134.891 424.414 135.328 423.966 135.712C423.582 135.989 423.369 136.139 423.326 136.16H422.526V130.08H423.806C424.126 131.125 424.574 132.064 425.15 132.896C426.452 134.752 428.137 135.68 430.206 135.68C431.422 135.68 432.393 135.317 433.118 134.592C433.844 133.867 434.206 132.896 434.206 131.68C434.206 130.976 433.993 130.347 433.566 129.792C433.161 129.237 432.649 128.747 432.03 128.32C431.412 127.893 430.548 127.36 429.438 126.72C428.03 125.931 426.889 125.216 426.014 124.576C425.14 123.936 424.393 123.136 423.774 122.176C423.156 121.195 422.846 120.043 422.846 118.72C422.846 117.675 423.134 116.736 423.71 115.904C424.308 115.051 425.193 114.379 426.366 113.888C427.54 113.376 428.98 113.12 430.686 113.12C431.924 113.12 433.161 113.472 434.398 114.176C434.868 114.432 435.337 114.773 435.806 115.2C436.169 114.645 436.542 114.208 436.926 113.888C437.31 113.611 437.524 113.461 437.566 113.44H438.366V119.52H437.086C436.809 118.496 436.393 117.568 435.838 116.736C435.326 115.925 434.686 115.253 433.918 114.72C433.172 114.187 432.308 113.92 431.326 113.92C430.494 113.92 429.78 114.251 429.182 114.912C428.585 115.573 428.286 116.416 428.286 117.44C428.286 118.229 428.51 118.944 428.958 119.584C429.428 120.203 429.993 120.747 430.654 121.216C431.337 121.685 432.254 122.251 433.406 122.912C434.75 123.68 435.838 124.363 436.67 124.96C437.502 125.557 438.206 126.304 438.782 127.2C439.358 128.075 439.646 129.088 439.646 130.24C439.646 131.392 439.316 132.448 438.654 133.408C437.993 134.347 437.001 135.093 435.678 135.648C434.356 136.203 432.745 136.48 430.846 136.48ZM453.078 136.48C449.92 136.48 447.531 135.744 445.91 134.272C444.288 132.779 443.478 130.688 443.478 128V114.56L441.558 114.08V113.6H450.678V114.08L448.758 114.56V128C448.758 130.752 449.184 132.725 450.038 133.92C450.891 135.093 452.118 135.68 453.718 135.68C454.699 135.68 455.627 135.371 456.502 134.752C457.398 134.112 458.112 133.216 458.646 132.064C459.2 130.891 459.478 129.536 459.478 128V115.04L456.918 114.08V113.6H462.998V114.08L460.438 115.04V128C460.438 129.728 460.118 131.232 459.478 132.512C458.838 133.792 457.963 134.773 456.854 135.456C455.744 136.139 454.486 136.48 453.078 136.48ZM464.756 135.52L466.676 135.04V114.56L464.756 114.08V113.6H473.396C476.639 113.6 479.018 114.123 480.532 115.168C482.068 116.192 482.836 117.536 482.836 119.2C482.836 120.352 482.506 121.28 481.844 121.984C481.183 122.688 480.34 123.211 479.316 123.552C478.228 123.936 477.055 124.139 475.796 124.16V124.32C477.354 124.384 478.708 124.619 479.86 125.024C481.034 125.408 482.004 126.005 482.772 126.816C483.562 127.627 483.956 128.661 483.956 129.92C483.956 131.819 483.178 133.312 481.62 134.4C480.063 135.467 477.535 136 474.036 136H464.756V135.52ZM473.396 123.84C474.1 123.84 474.751 123.648 475.348 123.264C475.967 122.859 476.458 122.304 476.82 121.6C477.204 120.875 477.396 120.075 477.396 119.2C477.396 118.261 477.204 117.429 476.82 116.704C476.458 115.979 475.967 115.413 475.348 115.008C474.751 114.603 474.1 114.4 473.396 114.4H471.956V123.84H473.396ZM474.036 135.2C475.359 135.2 476.436 134.731 477.268 133.792C478.1 132.853 478.516 131.563 478.516 129.92C478.516 128.277 478.1 126.987 477.268 126.048C476.436 125.109 475.359 124.64 474.036 124.64H471.956V135.2H474.036ZM486.506 135.52L488.426 135.04V114.56L486.506 114.08V113.6H495.146C498.389 113.6 500.768 114.123 502.282 115.168C503.818 116.192 504.586 117.536 504.586 119.2C504.586 120.352 504.256 121.28 503.594 121.984C502.933 122.688 502.09 123.211 501.066 123.552C499.978 123.936 498.805 124.139 497.546 124.16V124.32C499.104 124.384 500.458 124.619 501.61 125.024C502.784 125.408 503.754 126.005 504.522 126.816C505.312 127.627 505.706 128.661 505.706 129.92C505.706 131.819 504.928 133.312 503.37 134.4C501.813 135.467 499.285 136 495.786 136H486.506V135.52ZM495.146 123.84C495.85 123.84 496.501 123.648 497.098 123.264C497.717 122.859 498.208 122.304 498.57 121.6C498.954 120.875 499.146 120.075 499.146 119.2C499.146 118.261 498.954 117.429 498.57 116.704C498.208 115.979 497.717 115.413 497.098 115.008C496.501 114.603 495.85 114.4 495.146 114.4H493.706V123.84H495.146ZM495.786 135.2C497.109 135.2 498.186 134.731 499.018 133.792C499.85 132.853 500.266 131.563 500.266 129.92C500.266 128.277 499.85 126.987 499.018 126.048C498.186 125.109 497.109 124.64 495.786 124.64H493.706V135.2H495.786ZM518.496 136.48C516.406 136.48 514.571 136.032 512.992 135.136C511.435 134.219 510.23 132.885 509.376 131.136C508.523 129.387 508.096 127.275 508.096 124.8C508.096 122.325 508.523 120.213 509.376 118.464C510.23 116.715 511.435 115.392 512.992 114.496C514.571 113.579 516.406 113.12 518.496 113.12C520.587 113.12 522.411 113.579 523.968 114.496C525.547 115.392 526.763 116.715 527.616 118.464C528.47 120.213 528.896 122.325 528.896 124.8C528.896 127.275 528.47 129.387 527.616 131.136C526.763 132.885 525.547 134.219 523.968 135.136C522.411 136.032 520.587 136.48 518.496 136.48ZM518.496 135.84C519.328 135.84 520.096 135.488 520.8 134.784C521.526 134.08 522.123 132.907 522.592 131.264C523.062 129.621 523.296 127.467 523.296 124.8C523.296 122.133 523.062 119.979 522.592 118.336C522.123 116.693 521.526 115.52 520.8 114.816C520.096 114.112 519.328 113.76 518.496 113.76C517.664 113.76 516.886 114.112 516.16 114.816C515.456 115.52 514.87 116.693 514.4 118.336C513.931 119.979 513.696 122.133 513.696 124.8C513.696 127.467 513.931 129.621 514.4 131.264C514.87 132.907 515.456 134.08 516.16 134.784C516.886 135.488 517.664 135.84 518.496 135.84ZM535.319 135.52L537.239 135.04V114.4H533.559C533.559 115.701 533.207 116.949 532.503 118.144C532.204 118.635 531.863 119.04 531.479 119.36H530.519V113.6H549.239V119.36H548.279C547.873 119.04 547.521 118.635 547.223 118.144C546.54 116.992 546.199 115.744 546.199 114.4H542.519V135.04L544.439 135.52V136H535.319V135.52ZM551.631 136V135.52L553.551 135.04V114.56L551.631 114.08V113.6H560.751V114.08L558.831 114.56V135.04L560.751 135.52V136H551.631ZM566.511 119.04V134.56L569.071 135.52V136H562.991V135.52L565.551 134.56V114.72L563.311 114.08V113.6H566.671C567.802 113.6 568.687 113.803 569.327 114.208C569.967 114.613 570.575 115.157 571.151 115.84L581.391 127.84V115.04L578.831 114.08V113.6H584.911V114.08L582.351 115.04V136.48H581.391L566.511 119.04Z" fill="white"/>
</svg>
